<?xml version="1.0" encoding="UTF-8" standalone="no"?>
<svg
   xmlns:dc="http://purl.org/dc/elements/1.1/"
   xmlns:cc="http://creativecommons.org/ns#"
   xmlns:rdf="http://www.w3.org/1999/02/22-rdf-syntax-ns#"
   xmlns:svg="http://www.w3.org/2000/svg"
   xmlns="http://www.w3.org/2000/svg"
   xmlns:sodipodi="http://sodipodi.sourceforge.net/DTD/sodipodi-0.dtd"
   xmlns:inkscape="http://www.inkscape.org/namespaces/inkscape"
   version="1.1"
   id="svg2"
   xml:space="preserve"
   width="46.666668"
   height="45.333332"
   viewBox="0 0 46.666668 45.333332"
   sodipodi:docname="spruce.svg"
   inkscape:version="1.0.2 (1.0.2+r75+1)"><metadata
     id="metadata8"><rdf:RDF><cc:Work
         rdf:about=""><dc:format>image/svg+xml</dc:format><dc:type
           rdf:resource="http://purl.org/dc/dcmitype/StillImage" /><dc:title></dc:title></cc:Work></rdf:RDF></metadata><defs
     id="defs6" /><sodipodi:namedview
     pagecolor="#ffffff"
     bordercolor="#666666"
     borderopacity="1"
     objecttolerance="10"
     gridtolerance="10"
     guidetolerance="10"
     inkscape:pageopacity="0"
     inkscape:pageshadow="2"
     inkscape:window-width="1920"
     inkscape:window-height="1052"
     id="namedview4"
     showgrid="false"
     inkscape:zoom="19.367648"
     inkscape:cx="23.333334"
     inkscape:cy="22.485952"
     inkscape:window-x="0"
     inkscape:window-y="0"
     inkscape:window-maximized="1"
     inkscape:current-layer="g10" /><g
     id="g10"
     inkscape:groupmode="layer"
     inkscape:label="ink_ext_XXXXXX"
     transform="matrix(1.3333333,0,0,-1.3333333,0,45.333333)"><g
       id="g12"
       transform="scale(0.1)"><path
         d="m 274.293,23.8711 c -3.906,1.7422 -7.707,3.5781 -11.398,5.5273 -20.926,11.0586 -38.325,25.6524 -52.594,47.0743 -3.043,4.5625 -1.781,10.7187 2.812,13.7382 3.176,2.0899 7.117,2.1368 10.254,0.4571 17.594,-8.1407 31.449,-11.125 45.727,-10.8789 6.179,0.1054 12.578,0.8164 19.472,1.9804 -44.136,19.1685 -63.738,40.7855 -93.164,76.7105 -3.472,4.247 -2.828,10.489 1.446,13.938 3.504,2.832 8.359,2.906 11.91,0.5 15.836,-10.797 30.109,-15.613 44.109,-16.543 2.074,-0.137 4.149,-0.191 6.227,-0.168 -13,6.844 -82.899,65.711 -71.762,78.934 3.047,3.617 8.133,4.531 12.188,2.476 9.488,-4.797 17.437,-7.586 25.027,-8.594 -13.309,8.618 -23.422,18.926 -31.539,30.297 -7.867,11.028 -13.715,22.875 -18.746,35.059 -5.035,-12.184 -10.883,-24.027 -18.75,-35.059 -8.117,-11.371 -18.235,-21.679 -31.543,-30.3 7.597,1.007 15.551,3.796 25.039,8.605 4.918,2.488 10.933,0.543 13.437,-4.344 6.836,-13.347 -60.797,-70.644 -73.0192,-77.074 2.082,-0.023 4.1562,0.031 6.2305,0.168 13.9997,0.93 28.2737,5.746 44.1057,16.547 4.554,3.086 10.765,1.926 13.871,-2.598 2.648,-3.855 2.187,-8.902 -0.82,-12.222 -29.329,-35.789 -48.911,-57.247 -92.8599,-76.3325 6.8985,-1.164 13.2969,-1.875 19.4766,-1.9804 14.4219,-0.25 28.4103,2.7968 46.2583,11.125 4.98,2.3086 10.914,0.1718 13.242,-4.7774 1.523,-3.2344 1.129,-6.875 -0.719,-9.6562 C 123.957,55.0508 106.559,40.457 85.6289,29.3984 81.9375,27.4492 78.1406,25.6133 74.2266,23.8711 Z m -2.023,23.0742 c 18.578,-9.8125 40.484,-16.6172 65.964,-23.2226 4.704,-0.8086 8.286,-4.8868 8.286,-9.7891 0,-5.48829 -4.481,-9.93751 -10,-9.93751 H 12.0039 V 4.02734 C 7.57031,4.02344 3.51953,6.98828 2.35156,11.4492 0.972656,16.7422 4.17578,22.1484 9.5,23.5234 c 25.8164,6.6641 47.9883,13.5079 66.7539,23.4219 7.8516,4.1485 15.1172,8.8594 21.8281,14.3594 -13.0625,-2.0899 -69.7382,1.1094 -74.2109,14.9531 -1.6797,5.207 1.2031,10.7891 6.4453,12.461 43.9453,14.0542 59.4531,30.2772 78.6756,49.4182 -4.015,-0.782 -8.015,-1.293 -12.0115,-1.555 -17.168,-1.144 -33.8633,2.266 -51.7461,7.742 -3.6094,1.114 -6.4297,4.227 -6.9531,8.196 -0.711,5.418 3.1367,10.394 8.5937,11.097 36.5547,4.731 55.379,25.031 73.273,45.176 -10.449,-0.422 -20.8355,1.469 -32.9527,5.332 -3.1015,0.836 -5.7383,3.145 -6.8476,6.391 -1.7696,5.183 1.0312,10.82 6.25,12.578 25.4333,8.597 41.4143,21.961 52.6603,37.719 11.597,16.257 18.613,35.605 25.625,55.019 0.972,2.688 3.101,4.941 6.019,5.977 5.176,1.843 10.879,-0.836 12.735,-5.977 7.011,-19.414 14.027,-38.762 25.625,-55.019 11.25,-15.758 27.23,-29.122 52.66,-37.719 2.887,-0.989 5.285,-3.262 6.289,-6.367 1.68,-5.207 -1.203,-10.789 -6.445,-12.461 -12.305,-3.953 -22.817,-5.899 -33.387,-5.473 17.84,-20.09 36.605,-40.332 72.957,-45.133 3.875,-0.383 7.336,-3.019 8.551,-6.949 1.617,-5.231 -1.34,-10.773 -6.602,-12.387 -17.887,-5.476 -34.578,-8.886 -51.746,-7.742 -3.996,0.262 -7.992,0.773 -12.012,1.555 19.227,-19.141 34.727,-35.367 78.676,-49.4182 3.195,-1.0274 5.797,-3.625 6.641,-7.1055 4.969,-20.4375 -62.274,-22.25 -74.399,-20.3086 6.707,-5.5 13.977,-10.2109 21.825,-14.3594"
         style="fill:#ffffff;fill-opacity:1;fill-rule:nonzero;stroke:none"
         id="path14" /></g></g></svg>
