<?xml version="1.0" encoding="utf-8"?>
<!-- Svg Vector Icons : http://www.onlinewebfonts.com/icon -->
<!DOCTYPE svg PUBLIC "-//W3C//DTD SVG 1.1//EN" "http://www.w3.org/Graphics/SVG/1.1/DTD/svg11.dtd">
<svg version="1.1" xmlns="http://www.w3.org/2000/svg" xmlns:xlink="http://www.w3.org/1999/xlink" x="0px" y="0px" viewBox="0 0 1000 1000" enable-background="new 0 0 1000 1000" xml:space="preserve">
<metadata> Svg Vector Icons : http://www.onlinewebfonts.com/icon </metadata>
<g><g transform="translate(0.000000,511.000000) scale(0.100000,-0.100000)"><path d="M4805.9,3623.2c-53.3-23.4-127.8-74.6-168.3-110.8c-119.3-115.1-221.6-377.1-144.9-377.1c70.3,0,230.1,72.4,311.1,140.6c98,85.2,183.2,217.3,204.5,323.8c12.8,63.9,10.7,68.2-46.9,68.2C4929.5,3667.9,4859.2,3646.6,4805.9,3623.2z"/><path d="M5082.9,3604c0-219.4-321.7-532.6-545.4-532.6h-78.8l14.9-89.5c29.8-187.5,217.3-389.9,404.8-438.9c63.9-17,66-14.9,89.5,61.8c63.9,215.2,266.3,432.5,468.7,507c63.9,25.6,130,44.7,149.1,44.7c57.5,0-21.3,206.7-130,336.6c-61.8,72.4-249.3,174.7-323.8,174.7C5091.4,3667.9,5082.9,3657.2,5082.9,3604z"/><path d="M5430.2,3020.2c-185.3-87.4-387.7-328.1-389.9-464.4c0-46.9,25.6-46.9,168.3-4.3c189.6,55.4,360,245,396.3,441c12.8,68.2,10.7,78.8-23.4,78.8C5558,3071.4,5491.9,3047.9,5430.2,3020.2z"/><path d="M1416.3,2941.4c-492.2-72.4-958.7-417.6-1169.6-865c-121.4-255.7-155.5-443.1-144.9-773.4c8.5-251.4,19.2-313.2,78.8-487.9C319.1,406.1,530.1,78,851.8-226.6c426.1-402.7,914-634.9,1506.2-715.8c279.1-38.3,647.7-130,924.6-225.8c247.1-85.2,711.6-308.9,909.7-438.9c155.5-100.1,528.4-443.2,528.4-485.8c0-12.8-234.4-262.1-522-551.8c-287.6-291.9-522-541.1-522-556.1c0-36.2,219.4-247.1,257.8-247.1c19.2,0,206.6,185.4,419.7,409.1c210.9,225.8,443.2,468.7,513.5,539l130,125.7l119.3-115.1c63.9-63.9,296.1-306.8,513.4-536.9c219.4-232.2,413.3-421.8,432.5-421.8c38.3,0,255.7,210.9,255.7,249.3c0,12.8-234.3,262-522,551.8c-287.6,291.9-522,539-522,551.8c0,44.7,370.7,387.8,528.3,487.9c487.9,315.3,1208,575.2,1830.1,662.6c277,40.5,430.4,78.8,643.4,161.9C8902.8-533.4,9431.2-43.4,9708.2,546.7c240.8,513.4,255.7,1086.5,40.5,1527.6c-300.4,615.7-956.6,963-1649,871.4c-905.4-121.4-1717.2-916.1-1983.5-1940.9c-19.2-70.3-51.1-270.6-72.4-443.1c-74.6-583.8-215.2-1084.4-430.4-1538.2c-155.5-323.8-272.7-500.7-453.8-681.7L4997.7-1816l-151.3,147c-193.9,191.7-291.9,336.6-445.3,656.2C4166.8-527,4028.3-39.1,3951.6,572.3c-66.1,526.2-202.4,909.7-451.7,1288.9C2992.9,2630.4,2176.9,3054.3,1416.3,2941.4z M1610.2,2696.4c23.4-27.7,21.3-40.5-17-78.8l-46.9-44.7L1493,2624c-51.1,49-53.3,53.3-19.2,78.8C1525,2739,1578.3,2736.9,1610.2,2696.4z M1716.7,2722c0-19.2-63.9-29.8-74.6-12.8c-8.5,12.8,6.4,21.3,29.8,21.3C1697.6,2730.5,1716.7,2726.2,1716.7,2722z M1872.3,2692.1c34.1-36.2,32-42.6-17-89.5l-53.3-49l-53.3,49c-49,46.9-51.1,53.3-17,89.5c19.2,21.3,51.1,38.3,70.3,38.3C1821.1,2730.5,1853.1,2713.4,1872.3,2692.1z M1959.6,2683.6c-6.4-10.7-25.6-8.5-42.6,6.4c-40.5,34.1-38.3,38.3,12.8,25.6C1953.2,2709.2,1966,2696.4,1959.6,2683.6z M8086.9,2698.5c-14.9-17-36.2-25.6-46.9-19.2c-12.8,8.5-10.7,21.3,6.4,32C8093.3,2741.1,8116.7,2732.6,8086.9,2698.5z M8263.7,2692.1c34.1-36.2,32-42.6-17-89.5l-53.3-49l-53.3,49c-49,46.9-51.1,53.3-17,89.5c19.2,21.3,51.1,38.3,70.3,38.3S8244.5,2713.4,8263.7,2692.1z M8353.2,2709.2c-6.4-10.7-25.6-14.9-42.6-6.4c-44.7,14.9-40.5,27.7,12.8,27.7C8346.8,2730.5,8361.7,2722,8353.2,2709.2z M8521.5,2702.8c34.1-25.6,32-29.8-19.2-78.8l-53.3-51.1l-46.9,44.7c-38.3,38.3-40.5,51.1-17,78.8C8417.1,2736.9,8470.4,2739,8521.5,2702.8z M2145,2651.7c21.3-23.4,17-38.3-19.2-76.7l-46.9-44.7l-57.5,55.4c-44.7,44.7-51.1,63.9-32,87.3C2019.3,2709.2,2108.7,2696.4,2145,2651.7z M7974,2587.7l-57.5-57.5l-46.9,44.7c-36.2,38.3-40.5,53.3-19.2,78.8c36.2,42.6,112.9,53.3,151.3,19.2C8027.2,2649.5,8025.1,2636.7,7974,2587.7z M1375.9,2681.5c0-4.3-23.4-27.7-49-55.4c-44.7-40.5-53.3-42.6-78.8-12.8c-21.3,25.6-17,34.1,23.4,51.1C1322.6,2685.7,1375.9,2694.3,1375.9,2681.5z M8753.7,2647.4c8.5-8.5,4.3-27.7-12.8-40.5c-23.4-19.2-40.5-12.8-81,32l-51.1,55.4l63.9-14.9C8709,2670.8,8745.2,2655.9,8753.7,2647.4z M1471.7,2589.9c34.1-53.3,34.1-57.5-8.5-100.1l-44.8-44.7l-59.6,57.5l-57.5,59.7l51.1,42.6C1416.3,2658.1,1427,2655.9,1471.7,2589.9z M2377.2,2570.7c0-53.3-44.7-57.5-95.9-10.7c-29.8,27.7-46.9,55.4-40.5,66C2255.7,2651.7,2377.2,2602.7,2377.2,2570.7z M8642.9,2604.8l51.1-42.6l-57.5-59.7l-59.6-57.5l-46.9,44.7c-42.6,44.7-42.6,49-8.5,100.1C8564.1,2655.9,8579,2658.1,8642.9,2604.8z M1226.7,2592c23.4-27.7,19.2-42.6-23.4-87.3l-51.1-53.3l-49,57.5l-51.1,57.5l51.1,27.7C1169.2,2630.4,1194.8,2630.4,1226.7,2592z M1731.7,2577.1l49-46.9l-46.9-49c-57.5-61.8-72.4-61.8-115,4.3c-34.1,51.1-34.1,57.5,2.1,95.9C1667.7,2634.6,1672,2634.6,1731.7,2577.1z M7724.7,2570.7c-57.5-61.8-80.9-66-100.1-19.2c-14.9,40.5,27.7,72.4,98,72.4h51.1L7724.7,2570.7z M8374.5,2581.4c36.2-38.3,36.2-44.7,2.1-95.9c-42.6-66-51.1-66-112.9-6.4l-49,46.9l46.9,49C8317,2634.6,8325.5,2634.6,8374.5,2581.4z M8892.2,2594.1l51.1-27.7l-51.1-57.5l-49-57.5l-51.1,53.3c-42.6,44.7-46.9,59.7-23.4,87.3C8800.6,2630.4,8826.1,2630.4,8892.2,2594.1z M1989.4,2553.7l46.9-49l-49-46.9l-49-46.9l-51.1,53.3c-49,51.1-49,53.3-10.7,95.9C1925.5,2613.3,1934,2613.3,1989.4,2553.7z M2292,2483.3c0-14.9-21.3-42.6-46.9-59.6c-44.7-32-51.1-29.8-100.1,19.2l-53.3,51.1l51.1,55.4l51.1,53.3l49-46.9C2270.7,2530.2,2292,2498.3,2292,2483.3z M7854.6,2445c-40.5-42.6-59.6-49-91.6-32c-63.9,34.1-70.3,81-14.9,138.5l49,53.3l53.3-53.3l53.3-53.3L7854.6,2445z M8118.8,2560c38.3-42.6,38.3-44.7-10.7-95.9l-51.1-53.3l-46.9,44.7c-46.9,44.7-46.9,49-12.8,95.9C8042.1,2613.3,8069.8,2615.4,8118.8,2560z M2537,2464.2c0-21.3-17-49-36.2-61.8c-29.8-17.1-49-10.7-91.6,29.8l-55.4,53.3l46.9,38.3c40.5,32,51.1,34.1,91.6,8.5C2517.8,2515.3,2537,2485.5,2537,2464.2z M7626.7,2498.3c19.2-27.7-87.4-115-125.7-100.1c-57.5,21.3-63.9,81-12.8,121.4C7535.1,2557.9,7596.9,2549.4,7626.7,2498.3z M1077.6,2485.5l51.1-53.3l-46.9-49l-46.9-46.9l-68.2,70.3c-66,66-68.2,68.2-27.7,100.1C998.8,2549.4,1020.1,2547.3,1077.6,2485.5z M1375.9,2421.6c0-14.9-19.2-42.6-42.6-63.9c-42.6-38.3-44.7-38.3-100.1,17l-57.5,55.4l51.1,55.4l51.1,53.3l49-46.9C1354.6,2466.3,1375.9,2434.4,1375.9,2421.6z M8764.4,2374.7c-57.5-55.4-59.7-55.4-102.3-17c-53.3,49-53.3,70.3,4.3,132.1l46.9,51.1l53.3-55.4l55.4-53.3L8764.4,2374.7z M9056.2,2506.8c40.5-32,38.3-34.1-27.7-100.1l-68.2-70.3l-46.9,46.9l-46.9,49l51.1,53.3C8975.3,2547.3,8996.6,2549.4,9056.2,2506.8z M1603.8,2449.3l49-46.9l-46.9-49l-46.9-49l-59.7,57.5c-55.4,53.3-57.5,59.6-23.4,95.9C1520.7,2506.8,1544.2,2506.8,1603.8,2449.3z M1865.9,2336.3l-51.1-53.3l-49,46.9c-61.8,57.5-61.8,91.6-2.1,132.1c44.7,32,51.1,29.8,100.1-19.2l53.3-51.1L1865.9,2336.3z M8259.4,2428c19.2-34.1,12.8-53.3-25.5-93.7l-49-53.3l-53.3,53.3l-53.3,53.3l49,53.3C8180.6,2498.3,8225.3,2494,8259.4,2428z M8517.2,2459.9c38.3-34.1,38.3-36.2-19.2-95.9l-57.5-59.6l-49,46.9l-49,46.9l46.9,49C8444.8,2504.7,8464,2506.8,8517.2,2459.9z M2125.8,2321.4l-46.9-46.9l-53.3,51.1l-53.3,51.1l46.9,49l46.9,51.1l53.3-55.4l53.3-53.3L2125.8,2321.4z M7969.7,2327.8l-53.3-53.3l-46.9,46.9l-46.9,46.9l51.1,53.3l51.1,53.3l49-46.9l51.1-46.9L7969.7,2327.8z M937,2385.3l53.3-70.3l-44.8-46.9l-46.9-49l-70.3,68.2l-70.3,68.2l46.9,49C864.5,2468.4,873.1,2466.3,937,2385.3z M2390,2398.1c34.1-51.1,34.1-55.4-8.5-100.1l-46.9-44.7l-53.3,51.1l-53.3,51.1l46.9,49C2332.5,2466.3,2347.4,2466.3,2390,2398.1z M2728.7,2389.6c25.6-40.5-25.6-21.3-66,23.4c-40.5,46.9-40.5,46.9,6.4,21.3C2694.6,2421.6,2722.3,2400.3,2728.7,2389.6z M7330.5,2410.9c-21.3-23.4-49-42.6-61.8-42.6c-12.8,2.1,0,21.3,27.7,42.6C7360.4,2466.3,7379.5,2466.3,7330.5,2410.9z M7720.4,2404.5l46.9-49l-53.3-51.1c-51.1-49-53.3-49-95.9-10.7c-51.1,46.9-53.3,70.3-6.4,121.4C7656.5,2464.2,7665,2464.2,7720.4,2404.5z M9188.3,2406.7l49-46.9l-66-68.2c-53.3-55.4-76.7-66-104.4-51.1c-61.8,34.1-63.9,81-8.5,149.1C9124.4,2466.3,9124.4,2466.3,9188.3,2406.7z M2647.8,2385.3l49-46.9l-46.9-49c-57.5-61.8-72.4-61.8-115,4.3c-34.1,51.1-34.1,57.5,2.1,95.9C2583.8,2442.9,2588.1,2442.9,2647.8,2385.3z M7456.2,2391.7c36.2-38.4,36.2-44.7,2.1-95.9c-44.7-66-49-66-115.1-10.7l-51.1,42.6l49,51.1C7400.8,2442.9,7409.4,2442.9,7456.2,2391.7z M1248,2291.6c0-14.9-21.3-42.6-46.9-61.8c-46.9-32-51.1-29.8-98,23.4l-49,55.4l46.9,51.1l49,51.1l49-46.9C1226.7,2338.5,1248,2306.5,1248,2291.6z M8917.8,2283.1c-38.3-70.3-74.6-87.3-123.6-51.1c-59.6,40.5-59.6,68.2,0,130l46.9,49l46.9-44.7C8924.1,2332.1,8932.7,2310.8,8917.8,2283.1z M1488.8,2236.2c-44.7-49-68.2-49-127.8,8.5l-49,46.9l46.9,49l46.9,49l59.7-57.5C1520.7,2278.8,1522.9,2272.4,1488.8,2236.2z M8634.4,2342.7l49-46.9l-46.9-49c-55.4-57.5-74.6-59.6-125.7-14.9c-38.4,34.1-38.4,38.3,4.2,95.9C8566.2,2402.4,8570.5,2402.4,8634.4,2342.7z M1738,2315l51.1-53.3l-46.9-49c-36.2-36.2-55.4-40.5-83.1-23.4c-68.2,42.6-83.1,87.3-40.5,134.2C1669.9,2381.1,1678.4,2379,1738,2315z M8376.6,2323.6c42.6-46.9,27.7-91.6-40.5-134.2c-27.7-17.1-46.9-12.8-83.1,23.4l-46.9,49l51.1,53.3C8317,2379,8325.5,2381.1,8376.6,2323.6z M2002.2,2291.6c38.3-55.4,38.3-55.4-6.4-100.1l-44.8-44.7l-57.5,55.4c-55.4,57.5-55.4,59.6-17,102.3C1927.7,2359.8,1953.2,2357.7,2002.2,2291.6z M2841.6,2312.9c25.6-17,46.9-46.9,46.9-63.9c0-42.6-21.3-38.3-78.8,17.1C2728.7,2340.6,2752.2,2376.8,2841.6,2312.9z M7234.7,2332.1c0-21.3-89.5-112.9-110.8-112.9c-27.7,0-19.2,46.9,19.2,89.5C7177.1,2347,7234.7,2361.9,7234.7,2332.1z M8118.8,2304.4c38.3-42.6,38.3-44.7-17-102.3l-57.5-55.4l-44.7,44.7c-44.8,44.7-44.8,44.7-6.4,100.1C8042.1,2357.7,8067.7,2359.8,8118.8,2304.4z M811.3,2261.8l61.8-63.9l-51.1-53.3c-46.9-51.1-51.1-51.1-91.6-17c-72.4,68.2-85.2,112.9-44.7,157.7C732.4,2338.5,738.9,2336.3,811.3,2261.8z M2266.4,2276.7l46.9-49l-53.3-51.1l-55.4-51.1l-57.5,59.6l-57.5,57.5l51.1,42.6C2202.5,2336.3,2211,2336.3,2266.4,2276.7z M7852.5,2287.4l46.9-38.4l-53.3-63.9l-53.3-61.8l-55.4,51.1l-55.4,53.3l46.9,49C7784.3,2336.3,7792.9,2336.3,7852.5,2287.4z M9309.8,2285.2c40.5-44.7,27.7-89.5-44.8-157.7c-40.5-34.1-44.7-34.1-91.6,17l-51.1,53.3l61.8,63.9C9256.5,2336.3,9262.9,2338.5,9309.8,2285.2z M2522.1,2255.4l46.9-49l-49-46.9l-49-46.9l-51.1,53.3c-49,51.1-49,53.3-10.7,95.9C2458.1,2315,2466.7,2315,2522.1,2255.4z M2782,2144.6l-51.1-55.4l-53.3,53.3l-53.3,53.3l51.1,55.4l51.1,55.4l53.3-53.3l53.3-53.3L2782,2144.6z M7319.9,2144.6l-51.1-55.4l-53.3,53.3l-53.3,53.3l51.1,55.4l51.1,55.4l53.3-53.3l53.3-53.3L7319.9,2144.6z M7586.2,2261.8c38.3-42.6,38.3-44.7-10.7-95.9l-51.1-53.3l-49,46.9l-49,46.9l46.9,49C7528.7,2315,7537.2,2315,7586.2,2261.8z M1081.9,2129.7l-46.9-46.9l-53.3,51.1l-53.3,51.1l46.9,49l46.9,51.1l53.3-55.4l53.3-53.3L1081.9,2129.7z M9013.6,2136.1l-53.3-53.3l-46.9,46.9l-46.9,46.9l51.1,53.3l51.1,53.3l49-46.9l51.1-46.9L9013.6,2136.1z M1350.3,2212.8l46.9-49l-53.3-51.1l-53.3-49l-53.3,49l-53.3,51.1l46.9,49c25.6,27.7,51.1,49,59.6,49C1299.2,2261.8,1324.7,2240.5,1350.3,2212.8z M8764.4,2212.8l46.9-49l-53.3-51.1c-44.7-42.6-57.5-44.7-89.5-19.2c-66,51.1-70.3,70.3-23.4,119.3C8702.6,2272.4,8706.8,2272.4,8764.4,2212.8z M1610.2,2187.2l51.1-53.3l-46.9-46.9l-46.9-46.9l-57.5,55.4c-55.4,57.5-55.4,59.6-17,102.3C1542,2253.3,1550.6,2251.1,1610.2,2187.2z M1908.5,2123.3c0-14.9-19.2-42.6-42.6-63.9c-42.6-38.3-44.7-38.3-100.1,17l-57.5,55.4l51.1,55.4l51.1,53.3l49-46.9C1887.2,2168,1908.5,2136.1,1908.5,2123.3z M8231.7,2076.4c-57.5-55.4-59.6-55.4-102.3-17c-53.3,49-53.3,70.3,4.3,132.1l46.9,51.1l53.3-55.4l55.4-53.3L8231.7,2076.4z M8502.3,2197.9c38.3-42.6,38.3-44.7-17-102.3l-57.5-55.4l-46.9,46.9L8334,2134l51.1,53.3C8444.8,2251.1,8453.3,2253.3,8502.3,2197.9z M2138.6,2055.1l-46.9-49l-59.7,57.5l-59.7,57.5l46.9,49l46.9,49l59.6-57.5l59.7-57.5L2138.6,2055.1z M3005.7,2176.6c29.8-34.1,34.1-49,14.9-68.2c-19.2-19.2-38.3-12.8-78.8,25.6c-51.1,49-53.3,85.2-2.1,85.2C2954.6,2219.2,2984.4,2200,3005.7,2176.6z M7094.1,2200c6.4-8.5-12.8-40.5-40.5-66c-40.5-38.3-59.6-44.7-78.8-25.6c-19.2,19.2-14.9,34.1,14.9,68.2C7030.2,2221.3,7074.9,2232,7094.1,2200z M7965.4,2065.8l-57.5-59.7l-49,46.9l-49,46.9l57.5,59.7l57.5,59.7l49-46.9l49-46.9L7965.4,2065.8z M683.5,2134l61.8-63.9l-42.6-44.7c-49-46.9-91.6-38.3-134.2,27.7c-21.3,36.2-23.4,53.3,0,93.7C602.5,2212.8,608.9,2210.7,683.5,2134z M2398.5,2144.6l49-53.3l-49-53.3l-51.1-53.3l-49,46.9c-57.5,55.4-59.6,74.6-12.8,127.8C2330.3,2208.5,2338.8,2208.5,2398.5,2144.6z M7707.6,2161.6c51.1-44.7,49-74.6-10.7-130l-49-46.9l-51.1,53.3l-49,53.3l49,53.3C7656.5,2208.5,7656.5,2208.5,7707.6,2161.6z M9429.1,2144.6c27.7-51.1,25.6-59.7-27.7-112.9l-57.5-55.4l-46.9,46.9l-46.9,46.9l61.8,63.9C9386.5,2210.7,9392.8,2212.8,9429.1,2144.6z M2664.8,2027.4c-51.1-55.4-83.1-53.3-123.6,8.5c-29.8,44.7-29.8,53.3,12.8,95.9l44.8,44.7l53.3-53.3C2703.1,2072.2,2703.1,2070,2664.8,2027.4z M7452,2035.9c-44.8-61.8-72.5-63.9-121.4-8.5c-38.3,42.6-38.3,44.7,10.7,95.9l51.1,53.3l46.9-44.7C7486.1,2087.1,7486.1,2082.8,7452,2035.9z M962.6,2099.9c34.1-51.1,34.1-55.4-8.5-100.1l-46.9-44.7l-59.6,57.5l-57.5,59.7l51.1,42.6C905,2168,919.9,2165.9,962.6,2099.9z M2914.1,2119c49-44.7,49-76.7-4.3-123.6c-42.6-38.3-44.7-38.3-95.9,10.6l-53.3,51.1l46.9,49C2862.9,2163.8,2862.9,2165.9,2914.1,2119z M7187.8,2106.3l46.9-49l-53.3-51.1c-51.1-49-53.3-49-95.9-10.6c-51.1,46.9-53.3,70.3-6.4,121.4C7123.9,2165.9,7132.4,2165.9,7187.8,2106.3z M9154.2,2114.8l51.1-42.6l-57.5-59.7l-59.6-57.5l-46.9,44.7c-42.6,44.7-42.6,49-8.5,100.1C9075.4,2165.9,9090.3,2168,9154.2,2114.8z M1222.5,2085l46.9-49l-53.3-51.1c-51.1-49-53.3-49-95.9-10.6c-53.3,46.9-55.4,93.7-4.3,130C1165,2142.5,1169.2,2142.5,1222.5,2085z M8885.8,2091.3c36.2-38.3,36.2-44.7,2.1-95.9c-42.6-66-51.1-66-112.9-6.4l-49,46.9l46.9,49C8828.3,2144.6,8836.8,2144.6,8885.8,2091.3z M1478.1,2063.7l46.9-49l-49-46.9l-49-46.9l-51.1,53.3c-49,51.1-49,53.3-10.6,95.9C1414.2,2123.3,1422.7,2123.3,1478.1,2063.7z M1780.6,1993.3c0-14.9-21.3-42.6-46.9-61.8c-46.9-32-51.1-29.8-98,23.4l-49,55.4l46.9,51.1l49,51.1l49-46.9C1759.3,2040.2,1780.6,2008.3,1780.6,1993.3z M8385.1,1984.8c-38.3-70.3-74.6-87.3-123.6-51.1c-59.6,40.5-59.6,68.2,0,130l46.9,49l46.9-44.7C8391.5,2033.8,8400,2012.5,8385.1,1984.8z M8630.1,2070c38.3-42.6,38.3-44.7-10.7-95.9l-51.1-53.3l-46.8,44.7c-44.8,42.6-46.9,49-14.9,95.9C8547,2123.3,8579,2125.4,8630.1,2070z M2029.9,1955c-23.4-59.7-78.8-63.9-134.2-10.6l-51.1,49l46.9,49l46.9,51.1l51.1-53.3C2021.4,2008.3,2036.3,1976.3,2029.9,1955z M3133.5,2048.7c36.2-40.5,32-106.5-8.5-106.5c-32,0-93.8,100.1-76.7,127.8C3067.5,2102,3090.9,2095.6,3133.5,2048.7z M6947.1,2070c17-27.7-44.7-127.8-76.7-127.8c-40.5,0-44.8,66-8.5,106.5C6904.5,2095.6,6927.9,2102,6947.1,2070z M8099.6,1946.5c-91.6-93.8-187.5-2.1-95.9,93.7l49,51.1l49-46.9l51.1-46.9L8099.6,1946.5z M2270.7,2016.8l51.1-53.3l-46.9-49c-36.2-36.2-55.4-40.5-83.1-23.4c-68.2,42.6-83.1,87.3-40.5,134.2C2202.5,2082.8,2211,2080.7,2270.7,2016.8z M7844,2025.3c42.6-46.9,27.7-91.6-40.5-134.2c-27.7-17.1-46.9-12.8-83.1,23.4l-46.9,49l51.1,53.3C7784.3,2080.7,7792.9,2082.8,7844,2025.3z M572.7,1895.3c-46.9-44.7-49-44.7-89.5-8.5c-40.5,36.2-40.5,42.6-10.7,104.4l34.1,63.9l55.4-57.5l55.4-55.4L572.7,1895.3z M864.5,1931.6c0-14.9-19.2-42.6-42.6-63.9c-42.6-38.3-44.7-38.3-100.1,17l-57.5,55.4l51.1,55.4l51.1,53.3l49-46.9C843.2,1976.3,864.5,1944.3,864.5,1931.6z M2526.3,1995.5l51.1-53.3l-46.9-46.9l-46.9-46.9l-57.5,55.4c-55.4,57.5-55.4,59.6-17,102.3C2458.1,2061.5,2466.7,2059.4,2526.3,1995.5z M7586.2,2006.1c38.3-42.6,38.3-44.7-17-102.3l-57.5-55.4l-46.9,46.9l-46.9,46.9l51.1,53.3C7528.7,2059.4,7537.2,2061.5,7586.2,2006.1z M9275.7,1884.7c-57.5-55.4-59.6-55.4-102.3-17c-53.3,49-53.3,70.3,4.3,132.1l46.9,51.1l53.3-55.4l55.4-53.3L9275.7,1884.7z M9522.8,1987c29.8-55.4,29.8-63.9-10.7-100.1c-40.5-36.2-42.6-36.2-87.4,8.5l-46.9,46.9l51.1,53.3c27.7,29.8,53.3,53.3,55.4,53.3C9488.7,2048.7,9505.8,2021,9522.8,1987z M2799,1978.4l46.9-49l-53.3-51.1l-55.4-51.1l-55.4,57.5c-55.4,55.4-55.4,57.5-17,100.1C2713.8,2040.2,2743.6,2038.1,2799,1978.4z M7330.5,1984.8c38.3-42.6,38.3-44.7-17-100.1l-55.4-57.5l-55.4,51.1l-53.3,51.1l46.9,49C7251.7,2038.1,7281.6,2040.2,7330.5,1984.8z M1092.5,1959.2l49-46.9l-46.9-49l-46.9-49l-59.7,57.5c-55.4,53.3-57.5,59.6-23.4,95.9C1009.4,2016.8,1032.9,2016.8,1092.5,1959.2z M1354.6,1846.3l-51.1-53.3l-49,46.9c-61.8,57.5-61.8,91.6-2.1,132.1c44.7,32,51.1,29.8,100.1-19.2l53.3-51.1L1354.6,1846.3z M3052.5,1959.2l49-46.9l-46.9-49l-46.9-49l-49,46.9c-57.5,55.4-61.8,91.6-10.7,121.4C2997.2,2012.5,2995,2012.5,3052.5,1959.2z M7045,1984.8c53.3-29.8,51.1-59.6-6.4-121.4l-46.9-49l-49,46.9l-49,46.9l46.9,49C6993.9,2014.6,6989.7,2012.5,7045,1984.8z M8789.9,1912.4c0-14.9-21.3-46.9-49-72.4l-49-46.9l-51.1,53.3l-49,53.3l46.9,51.1c46.9,49,53.3,51.1,100.1,19.2C8766.5,1952.9,8789.9,1925.2,8789.9,1912.4z M9028.5,1969.9c38.3-34.1,38.3-36.2-19.2-95.9l-57.5-59.6l-49,46.9l-49,46.9l46.9,49C8956.1,2014.6,8975.3,2016.8,9028.5,1969.9z M1614.5,1831.4l-46.9-46.9l-57.5,55.4l-57.5,57.5l53.3,42.6l51.1,42.6l53.3-53.3l51.1-51.1L1614.5,1831.4z M8534.3,1897.5c0-6.4-23.4-34.1-53.3-61.8l-53.3-51.1l-46.9,46.9l-46.9,46.9l49,51.1c49,51.1,51.1,51.1,100.1,17.1C8510.8,1927.3,8534.3,1903.9,8534.3,1897.5z M1870.1,1927.3c49-44.7,49-76.7-4.3-123.6c-42.6-38.3-44.7-38.3-95.9,10.7l-53.3,51.1l46.9,49C1819,1972,1819,1974.2,1870.1,1927.3z M8231.7,1914.5l46.9-49l-53.3-51.1c-51.1-49-53.3-49-95.9-10.7c-51.1,46.9-53.3,70.3-6.4,121.4C8167.8,1974.2,8176.3,1974.2,8231.7,1914.5z M2138.6,1893.2l46.9-49l-49-46.9l-49-46.9l-51.1,53.3c-49,51.1-49,53.3-10.7,95.9C2074.6,1952.9,2083.2,1952.9,2138.6,1893.2z M3261.3,1899.6c21.3-23.4,32-55.4,23.4-76.7c-12.8-34.1-21.3-32-70.3,17.1c-29.8,29.8-46.9,66-40.5,78.8C3195.3,1952.9,3216.6,1948.6,3261.3,1899.6z M6821.4,1918.8c6.4-12.8-10.7-49-40.5-78.8c-49-49-57.5-51.1-70.3-17.1c-8.5,21.3,2.1,53.3,23.4,76.7C6778.7,1948.6,6800,1952.9,6821.4,1918.8z M7969.7,1899.6c38.3-42.6,38.3-44.7-12.8-95.9l-51.1-51.1l-51.1,42.6l-51.1,42.6l49,51.1C7912.2,1952.9,7920.7,1955,7969.7,1899.6z M736.7,1801.6c0-12.8-23.4-40.5-51.1-59.6c-51.1-32-55.4-32-95.9,25.6l-42.6,61.8L594,1874l44.8,46.9l49-46.9C715.4,1848.5,736.7,1816.5,736.7,1801.6z M2409.1,1878.3c42.6-46.9,32-93.7-27.7-125.7c-32-17.1-51.1-10.7-89.5,29.8c-49,51.1-49,53.3-10.7,95.9C2330.3,1931.6,2360.1,1931.6,2409.1,1878.3z M2696.8,1803.7c0-14.9-19.2-42.6-44.7-66c-44.8-40.5-44.8-40.5-95.9,23.4l-49,61.8l44.7,49l46.9,49l49-46.9C2675.4,1848.5,2696.8,1816.5,2696.8,1803.7z M7445.6,1769.6c-51.1-72.4-55.4-72.4-108.7-25.6c-49,44.7-49,68.2,8.5,127.8l46.9,49l46.9-44.7l49-46.9L7445.6,1769.6z M7714,1878.3c38.3-42.6,38.3-44.7-17-100.1c-55.4-55.4-57.5-55.4-100.1-17c-51.1,46.9-53.3,70.3-6.4,121.4C7635.2,1931.6,7667.2,1931.6,7714,1878.3z M9403.5,1769.6c-42.6-55.4-46.9-57.5-93.7-25.6c-63.9,40.5-63.9,63.9-4.3,127.8l46.9,49l46.9-44.7l49-44.7L9403.5,1769.6z M966.8,1837.8c42.6-59.7,42.6-63.9,6.4-95.9c-49-44.7-63.9-42.6-123.6,12.8l-49,46.9l46.9,49C905,1912.4,911.4,1912.4,966.8,1837.8z M2939.6,1825c29.8-44.7,27.7-51.1-17-93.7l-46.9-44.7l-46.9,49c-55.4,59.7-57.5,74.6-12.8,123.6C2856.5,1903.9,2894.9,1893.2,2939.6,1825z M7213.4,1803.7c0-12.8-21.3-44.7-49-70.3l-49-46.9l-49,51.1l-49,53.3l55.4,55.4c55.4,55.4,59.6,55.4,100.1,19.2C7194.2,1846.3,7213.4,1818.6,7213.4,1803.7z M9145.7,1852.7l49-46.9l-46.9-49c-55.4-57.5-74.6-59.6-125.7-14.9c-38.4,34.1-38.4,38.3,4.2,95.9C9077.5,1912.4,9081.8,1912.4,9145.7,1852.7z M470.4,1842.1c8.5-25.6-2.1-51.1-36.2-76.7c-55.4-46.9-70.3-25.6-40.5,55.4C419.3,1886.8,449.1,1895.3,470.4,1842.1z M1226.7,1825c49-51.1,49-53.3,10.6-95.9c-51.1-57.5-87.3-53.3-130,10.6c-34.1,51.1-34.1,57.5,2.1,95.9C1158.5,1889,1167.1,1889,1226.7,1825z M3186.8,1718.5l-53.3-55.4l-46.9,55.4c-61.8,70.3-61.8,85.2-2.1,125.7c44.7,32,51.1,29.8,100.1-19.2l53.3-51.1L3186.8,1718.5z M6951.3,1799.5c4.3-12.8-12.8-49-40.5-81l-49-55.4l-51.1,53.3l-51.1,55.4l49,53.3c44.7,46.9,55.4,51.1,93.8,25.6C6925.8,1833.6,6947.1,1812.3,6951.3,1799.5z M8885.8,1835.7c36.2-38.3,36.2-44.7,2.1-95.9c-42.6-63.9-78.8-68.2-130-10.6c-38.3,42.6-38.3,44.7,10.7,95.9C8828.3,1889,8836.8,1889,8885.8,1835.7z M9599.5,1814.4c34.1-83.1,19.2-98-42.6-46.9c-32,25.6-44.7,53.3-36.2,74.6C9542,1895.3,9569.7,1884.7,9599.5,1814.4z M1482.4,1803.7l51.1-53.3l-46.9-46.9l-46.9-46.9l-57.5,55.4c-55.4,57.5-55.4,59.6-17,102.3C1414.2,1869.8,1422.7,1867.6,1482.4,1803.7z M8630.1,1814.4c38.3-42.6,38.3-44.7-17-102.3l-57.5-55.4l-46.9,46.9l-46.9,46.9l51.1,53.3C8572.6,1867.6,8581.1,1869.8,8630.1,1814.4z M1755.1,1786.7l46.9-49l-53.3-51.1l-55.4-51.1l-53.3,55.4l-55.4,55.4l44.8,44.7C1686.9,1848.5,1699.7,1846.3,1755.1,1786.7z M8344.6,1814.4c53.3-29.8,51.1-89.5-2.1-138.5c-42.6-38.3-44.7-38.3-95.9,10.7l-53.3,51.1l46.9,49C8293.5,1844.2,8289.3,1842.1,8344.6,1814.4z M2010.7,1765.4l46.9-49l-49-46.9l-49-46.9l-51.1,53.3c-49,51.1-49,53.3-10.7,95.9C1946.8,1825,1955.4,1825,2010.7,1765.4z M2270.7,1654.6l-51.1-55.4l-53.3,53.3l-53.3,53.3l51.1,55.4l51.1,55.4l53.3-53.3l53.3-53.3L2270.7,1654.6z M7831.2,1654.6l-51.1-55.4l-53.3,53.3l-53.3,53.3l51.1,55.4l51.1,55.4l53.3-53.3l53.3-53.3L7831.2,1654.6z M8097.5,1771.8c38.3-42.6,38.3-44.7-10.7-95.9l-51.1-53.3l-49,46.9l-49,46.9l46.9,49C8040,1825,8048.5,1825,8097.5,1771.8z M570.5,1639.7l-46.9-46.9l-53.3,51.1l-53.3,51.1l46.9,49l46.9,51.1l53.3-55.4l53.3-53.3L570.5,1639.7z M2534.8,1731.3l59.6-61.8l-55.4-36.2c-55.4-36.2-59.7-36.2-108.7,10.7l-53.3,51.1l46.9,49c25.6,27.7,46.9,49,49,49C2475.2,1793.1,2502.9,1765.4,2534.8,1731.3z M3399.8,1690.8c0-25.6-12.8-21.3-53.3,17c-27.7,25.6-46.9,57.5-40.5,68.2C3323.1,1801.6,3399.8,1731.3,3399.8,1690.8z M6689.3,1773.9c6.4-8.5-12.8-40.5-40.5-66c-55.4-53.3-70.3-27.7-27.7,42.6C6650.9,1797.3,6672.2,1803.7,6689.3,1773.9z M7571.3,1650.3c-55.4-57.5-74.6-59.6-127.8-12.8c-38.3,34.1-38.3,36.2,19.2,95.9l57.5,59.6l49-46.9l49-46.9L7571.3,1650.3z M9524.9,1646.1l-53.3-53.3l-46.9,46.9l-46.9,46.9l51.1,53.3l51.1,53.3l49-46.9l51.1-46.9L9524.9,1646.1z M839,1722.8l46.9-49l-53.3-51.1l-53.3-49l-53.3,49l-53.3,51.1l46.9,49c25.6,27.7,51.1,49,59.6,49C787.9,1771.8,813.4,1750.5,839,1722.8z M2803.3,1718.5l51.1-53.3l-46.9-49c-36.2-36.2-55.4-40.5-83.1-23.4c-68.2,42.6-83.1,87.4-40.5,134.2C2735.1,1784.6,2743.6,1782.4,2803.3,1718.5z M7311.4,1727c42.6-46.9,27.7-91.6-40.5-134.2c-27.7-17-46.9-12.8-83.1,23.4l-46.9,49l51.1,53.3C7251.7,1782.4,7260.2,1784.6,7311.4,1727z M9262.9,1735.6c49-44.7,49-76.7-4.3-123.6c-42.6-38.3-44.7-38.3-95.9,10.6l-53.3,51.1l46.9,49C9211.7,1780.3,9211.7,1782.4,9262.9,1735.6z M1098.9,1697.2l51.1-53.3l-46.9-46.9l-46.9-46.9l-57.5,55.4c-55.4,57.5-55.4,59.6-17,102.3C1030.7,1763.3,1039.2,1761.1,1098.9,1697.2z M3058.9,1697.2l51.1-53.3l-46.9-46.9l-46.9-46.9l-57.5,55.4c-55.4,57.5-55.4,59.6-17,102.3C2990.8,1763.3,2999.3,1761.1,3058.9,1697.2z M7053.6,1707.9c38.3-42.6,38.3-44.7-17-102.3l-57.5-55.4l-46.9,46.9l-46.9,46.9l51.1,53.3C6996.1,1761.1,7004.6,1763.3,7053.6,1707.9z M9013.6,1707.9c38.3-42.6,38.3-44.7-17-102.3l-57.5-55.4l-46.9,46.9l-46.9,46.9l51.1,53.3C8956.1,1761.1,8964.6,1763.3,9013.6,1707.9z M1358.8,1692.9c49-44.7,49-76.7-4.3-123.6c-42.6-38.3-44.7-38.3-100.1,17c-55.4,55.4-55.4,57.5-17,100.1C1284.2,1737.7,1307.7,1739.8,1358.8,1692.9z M1652.8,1616.3c0-12.8-17-40.5-36.2-61.8c-34.1-38.3-36.2-38.3-95.9,19.2l-59.6,57.5l46.9,49l46.9,49l49-46.9C1631.5,1656.7,1652.8,1626.9,1652.8,1616.3z M3318.9,1692.9c49-44.7,49-76.7-4.3-123.6c-42.6-38.3-44.7-38.3-100.1,17c-55.4,55.4-55.4,57.5-17,100.1C3244.3,1737.7,3267.7,1739.8,3318.9,1692.9z M6797.9,1686.6c38.3-42.6,38.3-44.7-17-100.1c-55.4-55.4-57.5-55.4-100.1-17c-51.1,46.9-53.3,70.3-6.4,121.4C6719.1,1739.8,6751.1,1739.8,6797.9,1686.6z M8476.7,1575.8l-57.5-59.7l-49,46.9l-49,46.9l57.5,59.7l57.5,59.7l49-46.9l49-46.9L8476.7,1575.8z M8758,1686.6c38.3-42.6,38.3-44.7-17-100.1c-55.4-55.4-57.5-55.4-100.1-17c-51.1,46.9-53.3,70.3-6.4,121.4C8679.1,1739.8,8711.1,1739.8,8758,1686.6z M1887.2,1654.6l49-53.3l-49-53.3l-51.1-53.3l-59.7,57.5l-59.6,57.5l46.9,49C1821.1,1720.6,1825.4,1720.6,1887.2,1654.6z M8231.7,1658.9l46.9-49l-59.6-57.5l-59.6-57.5l-51.1,53.3l-49,53.3l49,53.3C8170,1720.6,8174.2,1720.6,8231.7,1658.9z M2153.5,1537.4c-51.1-55.4-83.1-53.3-123.6,8.5c-29.8,44.7-29.8,53.3,12.8,95.9l44.8,44.7l53.3-53.3C2191.8,1582.2,2191.8,1580,2153.5,1537.4z M7963.3,1545.9c-44.8-61.8-72.4-63.9-121.4-8.5c-38.3,42.6-38.3,44.7,10.7,95.9l51.1,53.3l46.9-44.7C7997.4,1597.1,7997.4,1592.8,7963.3,1545.9z M451.2,1609.9c34.1-51.1,34.1-55.4-8.5-98c-36.2-38.3-49-40.5-76.7-17c-40.5,32-44.8,108.7-8.5,144.9C393.7,1675.9,412.9,1671.6,451.2,1609.9z M2402.7,1629c49-44.7,49-76.7-4.3-123.6c-42.6-38.3-44.7-38.3-95.9,10.6l-53.3,51.1l46.9,49C2351.6,1673.8,2351.6,1675.9,2402.7,1629z M7699.1,1616.3l46.9-49l-53.3-51.1c-51.1-49-53.3-49-95.9-10.6c-51.1,46.9-53.3,70.3-6.4,121.4C7635.2,1675.9,7643.7,1675.9,7699.1,1616.3z M9637.9,1639.7c36.2-36.2,32-112.9-6.4-144.9c-27.7-21.3-40.5-21.3-74.6,10.7c-51.1,46.9-53.3,70.3-6.4,121.4C9591,1671.6,9603.8,1673.8,9637.9,1639.7z M711.1,1594.9l46.9-49l-53.3-51.1c-42.6-40.5-57.5-44.7-83.1-23.4c-55.4,44.7-63.9,108.7-19.2,140.6C653.6,1652.5,657.9,1652.5,711.1,1594.9z M2669.1,1597.1l49-46.9l-46.9-49c-57.5-61.8-72.4-61.8-115,4.3c-34.1,51.1-34.1,57.5,2.1,95.9C2605.1,1654.6,2609.4,1654.6,2669.1,1597.1z M7437.1,1601.3c36.2-38.3,36.2-44.7,2.1-95.9c-42.6-63.9-55.4-66-117.2-8.5l-46.8,44.7l46.8,51.1C7379.5,1654.6,7388.1,1654.6,7437.1,1601.3z M9130.8,1484.2l-51.1-53.3l-46.9,44.7l-49,44.7l46.9,61.8l44.7,61.8l53.3-53.3l53.3-51.1L9130.8,1484.2z M9397.1,1601.3c36.2-38.3,36.2-44.7,2.1-95.9c-42.6-66-51.1-66-112.9-6.4l-49,46.9l46.9,49C9339.6,1654.6,9348.1,1654.6,9397.1,1601.3z M975.3,1571.5c34.1-46.9,34.1-51.1-12.8-95.9l-46.9-44.7l-51.1,53.3c-49,51.1-49,53.3-10.7,95.9C902.9,1635.4,930.6,1633.3,975.3,1571.5z M1269.3,1503.3c0-14.9-21.3-42.6-46.9-61.8c-46.9-32-51.1-29.8-98,23.4l-49,55.4l46.9,51.1l49,51.1l49-46.9C1248,1550.2,1269.3,1518.2,1269.3,1503.3z M2946,1567.2c34.1-55.4,34.1-57.5-14.9-98c-49-40.5-51.1-40.5-104.4,12.8c-51.1,53.3-51.1,55.4-12.8,98C2865.1,1637.6,2901.3,1633.3,2946,1567.2z M3229.4,1505.5c0-14.9-19.2-42.6-44.7-66c-44.8-40.5-44.8-38.3-98,21.3l-51.1,59.7l46.9,51.1l49,51.1l49-46.9C3208.1,1550.2,3229.4,1518.2,3229.4,1505.5z M6913,1471.4c-51.1-72.4-55.4-72.4-108.7-25.6c-49,44.7-49,68.2,8.5,127.8l46.9,49l46.9-44.7l49-46.9L6913,1471.4z M7181.4,1580c38.3-42.6,38.3-44.7-12.8-98c-53.3-53.3-55.4-53.3-104.4-12.8c-49,40.5-49,42.6-14.9,98C7094.1,1633.3,7130.3,1637.6,7181.4,1580z M8896.4,1494.8c-38.3-70.3-74.6-87.3-123.6-51.1c-59.6,40.5-59.6,68.2,0,130l46.9,49l46.9-44.7C8902.8,1543.8,8911.4,1522.5,8896.4,1494.8z M1490.9,1539.6l59.6-61.8l-55.4-36.2c-55.4-36.2-59.7-36.2-108.7,10.7l-53.3,51.1l46.9,49c25.6,27.7,46.9,49,49,49C1431.3,1601.3,1459,1573.6,1490.9,1539.6z M3470.1,1447.9c-44.7-49-68.2-49-127.8,8.5l-49,46.9l46.9,49l46.9,49l59.6-57.5C3502.1,1490.5,3504.2,1484.2,3470.1,1447.9z M6644.5,1447.9l-57.5-59.6l-49,46.9c-46.9,44.7-46.9,46.9-10.7,89.5c59.6,72.4,76.7,76.7,125.7,29.8l49-46.9L6644.5,1447.9z M8610.9,1454.3c-51.1-51.1-53.3-51.1-108.6-14.9l-57.5,38.4l59.6,61.8l59.7,61.8l49-46.9l51.1-46.9L8610.9,1454.3z M1759.3,1526.8c49-51.1,49-53.3,10.7-95.9c-49-53.3-70.3-53.3-132.1,4.3l-49,46.9l46.9,49C1693.3,1592.8,1697.6,1592.8,1759.3,1526.8z M8357.4,1533.2l49-46.9l-46.9-49c-55.4-59.6-85.2-61.8-134.2-6.4c-38.3,42.6-38.3,44.7,10.7,95.9C8295.6,1590.7,8295.6,1590.7,8357.4,1533.2z M2015,1505.5l51.1-53.3l-46.9-46.9l-46.9-46.9l-57.5,55.4c-55.4,57.5-55.4,59.6-17,102.3C1946.8,1571.5,1955.4,1569.4,2015,1505.5z M8097.5,1516.1c38.3-42.6,38.3-44.7-17-102.3l-57.5-55.4l-46.9,46.9l-46.9,46.9l51.1,53.3C8040,1569.4,8048.5,1571.5,8097.5,1516.1z M583.3,1373.4l-46.9-49l-59.7,57.5l-59.6,57.5l46.9,49l46.9,49l59.6-57.5l59.7-57.5L583.3,1373.4z M2287.7,1488.4l46.9-49l-53.3-51.1l-55.4-51.1l-55.4,57.5c-55.4,55.4-55.4,57.5-17,100.1C2202.5,1550.2,2232.3,1548.1,2287.7,1488.4z M7841.9,1494.8c38.3-42.6,38.3-44.7-17-100.1l-55.4-57.5l-55.4,51.1l-53.3,51.1l46.9,49C7763,1548.1,7792.9,1550.2,7841.9,1494.8z M9520.7,1384l-57.5-59.6l-49,46.9l-49,46.9l57.5,59.7l57.5,59.6l49-46.9l49-46.9L9520.7,1384z M843.2,1356.3l-51.1-53.3l-49,46.9c-61.8,57.5-61.8,87.3,0,130c42.6,29.8,51.1,29.8,98-19.2l53.3-49L843.2,1356.3z M2541.2,1469.2l49-46.9l-46.9-49l-46.9-49l-49,46.9c-55.4,51.1-61.8,81-23.4,119.3C2460.3,1526.8,2483.7,1522.5,2541.2,1469.2z M2803.3,1356.3l-51.1-55.4l-53.3,53.3l-53.3,53.3l51.1,55.4l51.1,55.4l53.3-53.3l53.3-53.3L2803.3,1356.3z M7298.6,1356.3l-51.1-55.4l-53.3,53.3l-53.3,53.3l51.1,55.4l51.1,55.4l53.3-53.3l53.3-53.3L7298.6,1356.3z M7556.4,1494.8c53.3-29.8,51.1-59.6-6.4-121.4l-46.9-49l-49,46.9l-49,46.9l46.9,49C7505.3,1524.6,7501,1522.5,7556.4,1494.8z M9258.6,1356.3l-51.1-55.4l-53.3,53.3l-53.3,53.3l51.1,55.4l51.1,55.4l53.3-53.3l53.3-53.3L9258.6,1356.3z M1103.2,1341.4l-46.9-46.9l-53.3,51.1l-53.3,51.1l46.9,49l46.9,51.1l53.3-55.4l53.3-53.3L1103.2,1341.4z M3101.5,1375.5c0-14.9-19.2-38.3-44.7-53.3c-36.2-19.2-53.3-14.9-95.9,25.6l-51.1,49l46.9,49l46.9,49l49-46.9C3080.2,1422.4,3101.5,1390.4,3101.5,1375.5z M7036.5,1349.9c-44.8-42.6-59.6-46.9-98-27.7c-57.5,32-57.5,61.8,2.1,123.6l46.9,49l49-46.9l51.1-46.9L7036.5,1349.9z M8992.3,1347.8l-53.3-53.3l-46.9,46.9l-46.9,46.9l51.1,53.3l51.1,53.3l49-46.9l51.1-46.9L8992.3,1347.8z M353.2,1441.5c0-17-8.5-32-21.3-32c-10.6,0-21.3,14.9-21.3,32c0,17,10.7,32,21.3,32C344.7,1473.5,353.2,1458.6,353.2,1441.5z M1358.8,1437.3c49-44.7,49-76.7-4.3-123.6c-42.6-38.3-44.7-38.3-95.9,10.7l-53.3,51.1l46.9,49C1307.7,1482,1307.7,1484.2,1358.8,1437.3z M3327.4,1428.8c53.3-49,46.9-93.7-17.1-127.8c-34.1-19.2-53.3-12.8-93.7,25.6l-51.1,49l46.9,49C3267.7,1484.2,3267.7,1484.2,3327.4,1428.8z M6783,1424.5l46.9-49l-53.3-51.1c-49-46.9-53.3-46.9-106.5-12.8c-66,42.6-66,51.1-6.4,112.9C6721.2,1484.2,6725.5,1484.2,6783,1424.5z M8743,1424.5l46.9-49l-53.3-51.1c-51.1-49-53.3-49-95.9-10.7c-51.1,46.9-53.3,70.3-6.4,121.4C8679.1,1484.2,8687.7,1484.2,8743,1424.5z M9684.7,1441.5c0-17-8.5-32-21.3-32c-10.7,0-21.3,14.9-21.3,32c0,17,10.7,32,21.3,32C9676.2,1473.5,9684.7,1458.6,9684.7,1441.5z M1633.7,1396.8l51.1-53.3l-53.3-40.5c-53.3-40.5-53.3-40.5-104.4,10.7c-51.1,51.1-51.1,53.3-12.8,95.9C1563.3,1465,1571.9,1462.9,1633.7,1396.8z M3578.8,1390.4c27.7-51.1,27.7-66,2.1-100.1c-27.7-38.3-32-38.3-87.3,17.1c-57.5,57.5-57.5,59.6-19.2,102.3C3525.5,1467.1,3542.6,1462.9,3578.8,1390.4z M6521,1409.6c38.3-42.6,38.3-44.7-19.2-102.3c-55.4-55.4-59.6-55.4-87.3-17.1c-25.6,34.1-25.6,49,2.1,100.1C6452.8,1462.9,6469.8,1467.1,6521,1409.6z M8481,1409.6c38.3-42.6,38.3-44.7-12.8-98l-53.3-53.3l-53.3,42.6l-51.1,40.5l51.1,55.4C8423.5,1462.9,8432,1465,8481,1409.6z M1902.1,1375.5c34.1-55.4,34.1-57.5-14.9-98c-49-40.5-51.1-40.5-104.4,12.8c-51.1,53.3-51.1,55.4-12.8,98C1821.1,1445.8,1857.4,1441.5,1902.1,1375.5z M2153.5,1260.5l-55.4-53.3l-51.1,63.9l-51.1,61.8l44.7,49l46.9,49l59.7-57.5l59.6-57.5L2153.5,1260.5z M7956.9,1279.6c-51.1-74.6-55.4-74.6-119.3-14.9l-49,46.9l57.5,59.7l57.5,59.6l49-44.7l46.9-46.9L7956.9,1279.6z M8225.3,1388.3c38.3-42.6,38.3-44.7-10.6-95.9c-38.3-40.5-57.5-46.9-89.5-29.8c-59.6,32-70.3,78.8-27.7,125.7C8146.5,1441.5,8176.3,1441.5,8225.3,1388.3z M455.5,1245.5l-46.9-49l-49,46.9c-57.5,55.4-59.6,74.6-12.8,127.8c34.1,38.3,36.2,38.3,95.9-19.2l59.6-57.5L455.5,1245.5z M2417.7,1347.8l42.6-59.7l-49-46.9l-46.9-44.7l-46.9,49c-55.4,59.7-57.5,74.6-10.6,125.7C2353.8,1422.4,2366.5,1420.2,2417.7,1347.8z M7686.3,1373.4c51.1-44.7,49-74.6-10.7-130l-49-46.9l-46.9,49l-46.9,51.1l44.7,55.4C7628.8,1420.2,7635.2,1420.2,7686.3,1373.4z M9684.7,1313.7c0-12.8-21.3-44.7-49-70.3l-49-46.9l-46.9,49l-46.9,51.1l53.3,57.5c53.3,57.5,57.5,57.5,98,23.4C9665.5,1356.3,9684.7,1328.6,9684.7,1313.7z M715.4,1335c49-51.1,49-53.3,10.7-95.9c-51.1-57.5-87.3-53.3-130,10.7c-34.1,51.1-34.1,57.5,2.1,95.9C647.2,1398.9,655.8,1398.9,715.4,1335z M2686.1,1239.2c-51.1-57.5-87.3-53.3-132.1,12.8c-34.1,55.4-34.1,57.5,14.9,98c49,40.5,51.1,40.5,104.4-12.8C2724.4,1283.9,2724.4,1281.8,2686.1,1239.2z M7458.4,1324.4c19.2-29.8-46.9-127.8-83.1-127.8c-14.9,0-44.7,19.2-66,42.6c-38.3,42.6-38.3,44.7,10.7,95.9S7422.1,1381.9,7458.4,1324.4z M9395,1347.8c36.2-38.4,36.2-44.7,2.1-95.9c-44.7-66-76.7-70.3-127.8-12.8c-38.3,42.6-38.3,44.7,10.7,95.9C9339.6,1398.9,9348.1,1398.9,9395,1347.8z M971.1,1313.7l51.1-53.3l-46.9-46.9l-46.9-46.9l-57.5,55.4c-55.4,57.5-55.4,59.6-17,102.3C902.9,1379.8,911.4,1377.6,971.1,1313.7z M2941.8,1311.6c34.1-53.3,34.1-57.5-8.5-100.1l-44.8-44.7l-57.5,55.4l-57.5,57.5l53.3,42.6C2892.8,1377.6,2897,1377.6,2941.8,1311.6z M7168.6,1322.2l53.3-42.6l-57.5-57.5l-57.5-55.4l-46.9,44.7c-42.6,44.7-42.6,49-8.5,100.1C7094.1,1377.6,7102.6,1377.6,7168.6,1322.2z M9141.5,1324.4c38.3-42.6,38.3-44.7-17-102.3l-57.5-55.4l-44.7,44.7c-44.7,44.7-44.7,44.7-6.4,100.1C9064.8,1377.6,9090.3,1379.8,9141.5,1324.4z M1243.8,1296.7l46.9-49l-55.4-53.3l-55.4-51.1l-53.3,61.8l-53.3,63.9l46.9,38.4C1179.8,1356.3,1188.4,1356.3,1243.8,1296.7z M3203.8,1296.7l46.9-49l-53.3-51.1c-51.1-49-53.3-49-95.9-10.7c-51.1,46.9-53.3,70.3-6.4,121.4C3139.9,1356.3,3148.4,1356.3,3203.8,1296.7z M6898.1,1309.5c49-44.7,49-76.7-4.3-123.6c-42.6-38.3-44.7-38.3-95.9,10.7l-53.3,51.1l46.9,49C6846.9,1354.2,6846.9,1356.3,6898.1,1309.5z M8875.1,1307.3l46.9-38.4l-53.3-63.9l-53.3-61.8l-55.4,51.1l-55.4,53.3l46.9,49C8807,1356.3,8815.5,1356.3,8875.1,1307.3z M1499.4,1275.4l46.9-49l-49-46.9l-49-46.9l-51.1,53.3c-49,51.1-49,53.3-10.6,95.9C1435.5,1335,1444,1335,1499.4,1275.4z M1759.3,1164.6l-51.1-55.4l-53.3,53.3l-53.3,53.3l51.1,55.4l51.1,55.4l53.3-53.3l53.3-53.3L1759.3,1164.6z M3459.5,1275.4l46.9-49l-49-46.9l-49-46.9l-51.1,53.3c-49,51.1-49,53.3-10.7,95.9C3395.5,1335,3404.1,1335,3459.5,1275.4z M6648.8,1281.8c38.3-42.6,38.3-44.7-12.8-95.9c-51.1-51.1-51.1-51.1-100.1-10.6c-49,40.5-49,42.6-10.7,93.7C6572.1,1335,6597.7,1337.2,6648.8,1281.8z M8342.5,1164.6l-51.1-55.4l-53.3,53.3l-53.3,53.3l51.1,55.4l51.1,55.4l53.3-53.3l53.3-53.3L8342.5,1164.6z M8608.8,1281.8c38.3-42.6,38.3-44.7-10.7-95.9l-51.1-53.3l-49,46.9l-49,46.9l46.9,49C8551.3,1335,8559.8,1335,8608.8,1281.8z M2023.5,1241.3l59.6-61.8l-55.4-36.2c-55.4-36.2-59.7-36.2-108.7,10.7l-53.3,51.1l46.9,49c25.6,27.7,46.9,49,49,49C1963.9,1303.1,1991.6,1275.4,2023.5,1241.3z M8078.3,1156.1c-51.1-51.1-53.3-51.1-108.6-14.9l-57.5,38.4l59.6,61.8l59.7,61.8l49-46.9l51.1-46.9L8078.3,1156.1z M2292,1228.5l51.1-53.3l-46.9-49c-36.2-36.2-55.4-40.5-83.1-23.4c-68.2,42.6-83.1,87.4-40.5,134.2C2223.8,1294.6,2232.3,1292.4,2292,1228.5z M7822.7,1237c42.6-46.9,27.7-91.6-40.5-134.2c-27.7-17.1-46.9-12.8-83.1,23.4l-46.9,49l51.1,53.3C7763,1292.4,7771.6,1294.6,7822.7,1237z M587.6,1207.2l51.1-53.3l-46.9-46.9l-46.9-46.9l-57.5,55.4c-55.4,57.5-55.4,59.6-17,102.3C519.4,1273.2,527.9,1271.1,587.6,1207.2z M885.8,1143.3c0-14.9-19.2-42.6-42.6-63.9c-42.6-38.3-44.7-38.3-100.1,17l-57.5,55.4l51.1,55.4l51.1,53.3l49-46.9C864.5,1188,885.8,1156.1,885.8,1143.3z M2547.6,1207.2l51.1-53.3l-46.9-46.9l-46.9-46.9l-57.5,55.4c-55.4,57.5-55.4,59.6-17,102.3C2479.4,1273.2,2488,1271.1,2547.6,1207.2z M3666.1,1194.4c8.5-36.2,10.7-68.2,6.4-74.6c-19.2-17-106.5,95.9-91.6,117.2C3606.5,1281.8,3651.2,1260.5,3666.1,1194.4z M6414.4,1237c14.9-21.3-72.5-134.2-91.6-117.2c-4.3,6.4-2.1,38.4,6.4,74.6C6344.1,1260.5,6388.9,1281.8,6414.4,1237z M7564.9,1217.9c38.3-42.6,38.3-44.7-17-102.3l-57.5-55.4l-46.9,46.9l-46.9,46.9l51.1,53.3C7507.4,1271.1,7515.9,1273.2,7564.9,1217.9z M9254.4,1096.4c-57.5-55.4-59.6-55.4-102.3-17c-53.3,49-53.3,70.3,4.3,132.1l46.9,51.1l53.3-55.4l55.4-53.3L9254.4,1096.4z M9524.9,1217.9c38.3-42.6,38.3-44.7-17-102.3l-57.5-55.4l-46.9,46.9l-46.9,46.9l51.1,53.3C9467.4,1271.1,9475.9,1273.2,9524.9,1217.9z M1115.9,1075.1l-46.9-49l-59.7,57.5l-59.6,57.5l46.9,49l46.9,49l59.6-57.5l59.6-57.5L1115.9,1075.1z M2807.5,1202.9c49-44.7,49-76.7-4.3-123.6c-42.6-38.3-44.7-38.3-100.1,17c-55.4,55.4-55.4,57.5-17,100.1C2733,1247.7,2756.4,1249.8,2807.5,1202.9z M7309.2,1196.5c38.3-42.6,38.3-44.7-17-100.1c-55.4-55.4-57.5-55.4-100.1-17c-51.1,46.9-53.3,70.3-6.4,121.4C7230.4,1249.8,7262.4,1249.8,7309.2,1196.5z M8988.1,1085.8l-57.5-59.6l-49,46.9l-49,46.9l57.5,59.7l57.5,59.6l49-46.9l49-46.9L8988.1,1085.8z M370.3,1177.4c6.4-17.1-2.1-25.6-19.2-19.2c-14.9,4.3-32,21.3-36.2,36.2c-6.4,17,2.1,25.6,19.2,19.2C349,1209.3,366,1192.3,370.3,1177.4z M1373.7,1160.3l44.7-55.4l-46.9-51.1l-46.9-49l-59.7,57.5l-59.6,57.5l46.9,49C1309.8,1230.6,1320.5,1230.6,1373.7,1160.3z M3073.9,1171l49-46.9l-46.9-49l-46.9-49l-49,46.9c-57.5,55.4-61.8,91.6-10.7,121.4C3018.5,1224.2,3016.3,1224.2,3073.9,1171z M3335.9,1058.1l-51.1-55.4l-53.3,53.3l-53.3,53.3l51.1,55.4l51.1,55.4l53.3-53.3l53.3-53.3L3335.9,1058.1z M6766,1058.1l-51.1-55.4l-53.3,53.3l-53.3,53.3l51.1,55.4l51.1,55.4l53.3-53.3l53.3-53.3L6766,1058.1z M7023.7,1196.5c53.3-29.8,51.1-59.6-6.4-121.4l-46.9-49l-49,46.9l-49,46.9l46.9,49C6972.6,1226.4,6968.4,1224.2,7023.7,1196.5z M8730.3,1181.6c51.1-44.7,49-74.6-10.7-130l-49-46.9l-51.1,53.3l-49,53.3l49,53.3C8679.1,1228.5,8679.1,1228.5,8730.3,1181.6z M9684.7,1198.7c0-25.6-42.6-53.3-57.5-38.4c-14.9,14.9,12.8,57.5,38.3,57.5C9676.2,1217.9,9684.7,1209.3,9684.7,1198.7z M1635.8,1043.1l-46.9-46.9l-53.3,51.1l-53.3,51.1l46.9,49l46.9,51.1l53.3-55.4l53.3-53.3L1635.8,1043.1z M3595.8,1043.1l-46.9-46.9l-53.3,51.1l-53.3,51.1l46.9,49l46.9,51.1l53.3-55.4l53.3-53.3L3595.8,1043.1z M6499.7,1049.5l-53.3-53.3l-46.9,46.9l-46.9,46.9l51.1,53.3l51.1,53.3l49-46.9l51.1-46.9L6499.7,1049.5z M8459.7,1049.5l-53.3-53.3l-46.9,46.9l-46.9,46.9l51.1,53.3l51.1,53.3l49-46.9l51.1-46.9L8459.7,1049.5z M1891.4,1139c49-44.7,49-76.7-4.3-123.6c-42.6-38.3-44.7-38.3-95.9,10.6l-53.3,51.1l46.9,49C1840.3,1183.8,1840.3,1185.9,1891.4,1139z M8210.4,1126.2l46.9-49l-53.3-51.1c-51.1-49-53.3-49-95.9-10.6c-51.1,46.9-53.3,70.3-6.4,121.4C8146.5,1185.9,8155,1185.9,8210.4,1126.2z M2157.7,1107.1l49-46.9l-46.9-49c-57.5-61.8-72.4-61.8-115,4.3c-34.1,51.1-34.1,57.5,2.1,95.9C2093.8,1164.6,2098.1,1164.6,2157.7,1107.1z M7948.4,1111.3c36.2-38.3,36.2-44.7,2.1-95.9c-42.6-66-51.1-66-112.9-6.4l-49,46.9l46.9,49C7890.9,1164.6,7899.4,1164.6,7948.4,1111.3z M455.5,1083.6l46.9-49l-51.1-49l-51.1-46.9L366,985.6c-40.5,59.6-42.6,87.3-8.5,121.4C393.7,1143.3,402.2,1139,455.5,1083.6z M758,1013.3c0-14.9-21.3-42.6-46.9-61.8c-46.9-32-51.1-29.8-95.9,25.6l-46.9,57.5l44.7,49l46.9,49l49-46.9C736.7,1060.2,758,1028.2,758,1013.3z M2430.4,1075.1c36.2-55.4,36.2-57.5-10.7-95.9c-49-40.5-51.1-40.5-104.4,12.8c-51.1,53.3-51.1,55.4-12.8,98C2353.8,1147.5,2385.7,1143.3,2430.4,1075.1z M2718.1,1015.5c0-14.9-19.2-42.6-44.7-66c-44.8-40.5-44.8-38.3-98,21.3l-51.1,59.7l46.9,51.1l49,51.1l49-46.9C2696.8,1060.2,2718.1,1028.2,2718.1,1015.5z M7447.7,1004.8c-10.7-19.2-34.1-49-53.3-63.9c-27.7-23.4-40.5-19.2-85.2,21.3l-53.3,51.1l57.5,59.7l57.5,59.6l46.9-44.7C7454.1,1053.8,7462.6,1032.5,7447.7,1004.8z M7692.7,1090c38.3-42.6,38.3-44.7-12.8-98c-53.3-53.3-55.4-53.3-104.4-12.8c-46.9,38.4-46.9,40.5-10.6,95.9C7609.6,1143.3,7641.6,1147.5,7692.7,1090z M9384.3,981.4c-36.2-51.1-51.1-57.5-85.2-38.3c-66.1,34.1-72.4,81-17.1,138.5l49,51.1l46.8-44.7l49-46.9L9384.3,981.4z M9650.6,1085.8c14.9-25.6,10.7-49-17.1-91.6l-38.3-57.5l-51.1,49l-51.1,49l46.9,49C9591,1136.9,9616.5,1139,9650.6,1085.8z M998.8,957.9c-44.7-49-68.2-49-127.8,8.5l-49,46.9l46.9,49l46.9,49l59.7-57.5C1030.7,1000.5,1032.9,994.2,998.8,957.9z M2948.1,947.3l-46.9-49l-59.7,57.5l-59.6,57.5l46.9,49l46.9,49l59.6-57.5l59.6-57.5L2948.1,947.3z M7155.8,957.9l-57.5-59.6l-49,46.9c-46.9,44.7-46.9,46.9-10.7,89.5c59.6,72.4,76.7,76.7,125.7,29.8l49-46.9L7155.8,957.9z M9126.5,968.6c-55.4-57.5-74.6-59.6-127.8-12.8c-38.3,34.1-38.3,36.2,19.2,95.9l57.5,59.6l49-46.9l49-46.9L9126.5,968.6z M1248,1036.8l51.1-53.3l-46.9-49c-36.2-36.2-55.4-40.5-83.1-23.4c-68.2,42.6-83.1,87.3-40.5,134.2C1179.8,1102.8,1188.4,1100.7,1248,1036.8z M3208.1,1036.8l49-53.3l-49-53.3l-51.1-53.3l-49,46.9c-57.5,55.4-59.6,74.6-12.8,127.8C3139.9,1100.7,3148.4,1100.7,3208.1,1036.8z M6898.1,1053.8c51.1-44.7,49-74.6-10.7-130l-49-46.9l-51.1,53.3l-49,53.3l49,53.3C6846.9,1100.7,6846.9,1100.7,6898.1,1053.8z M8864.5,1047.4c36.2-38.3,36.2-44.7,2.1-95.9c-42.6-63.9-78.8-68.2-130-10.6c-38.3,42.6-38.3,44.7,10.7,95.9C8807,1100.7,8815.5,1100.7,8864.5,1047.4z M1503.7,1015.5l51.1-53.3l-46.9-46.9l-46.9-46.9l-57.5,55.4c-55.4,57.5-55.4,59.6-17,102.3C1435.5,1081.5,1444,1079.4,1503.7,1015.5z M3468,915.3l-46.9-46.9l-59.6,57.5l-57.5,59.7l51.1,42.6l53.3,42.6l53.3-53.3l53.3-55.4L3468,915.3z M6659.4,1004.8c14.9-27.7,6.4-49-34.1-87.3l-51.1-49l-46.9,46.9l-46.9,46.9l49,51.1C6582.8,1068.7,6627.5,1066.6,6659.4,1004.8z M8608.8,1026.1c38.3-42.6,38.3-44.7-17-102.3l-57.5-55.4l-46.9,46.9l-46.9,46.9l51.1,53.3C8551.3,1079.4,8559.8,1081.5,8608.8,1026.1z M1776.4,998.4l46.9-49l-53.3-51.1l-55.4-51.1l-55.4,57.5c-55.4,55.4-55.4,57.5-17,100.1C1691.2,1060.2,1721,1058.1,1776.4,998.4z M3727.9,977.1c17-44.7,12.8-66-14.9-93.8c-34.1-34.1-38.3-32-89.5,14.9l-53.3,51.1l46.9,49C3672.5,1058.1,3702.3,1051.7,3727.9,977.1z M6378.2,998.4l46.9-49l-53.3-51.1c-42.6-40.5-57.5-44.7-85.2-21.3c-38.3,32-40.5,72.4-10.7,130C6305.8,1060.2,6322.8,1058.1,6378.2,998.4z M8353.2,1004.8c38.3-42.6,38.3-44.7-17-100.1l-55.4-57.5l-55.4,51.1l-53.3,51.1l46.9,49C8274.3,1058.1,8304.2,1060.2,8353.2,1004.8z M2029.9,979.2l49-46.9l-46.9-49l-46.9-49l-49,46.9c-57.5,55.4-61.8,91.6-10.7,121.4C1974.5,1032.5,1972.4,1032.5,2029.9,979.2z M2292,866.3l-51.1-55.4l-53.3,53.3l-53.3,53.3l51.1,55.4l51.1,55.4l53.3-53.3l53.3-53.3L2292,866.3z M7809.9,866.3l-51.1-55.4l-53.3,53.3l-53.3,53.3l51.1,55.4l51.1,55.4l53.3-53.3l53.3-53.3L7809.9,866.3z M8067.7,1004.8c53.3-29.8,51.1-59.6-6.4-121.4l-46.9-49l-49,46.9l-49,46.9l46.9,49C8016.6,1034.6,8012.3,1032.5,8067.7,1004.8z M591.8,851.4L545,804.5l-53.3,51.1l-53.3,51.1l46.9,49l46.9,51.1l53.3-55.4l53.3-53.3L591.8,851.4z M2590.2,885.5c0-14.9-19.2-38.3-44.7-53.3c-36.2-19.2-53.3-14.9-95.9,25.6l-51.1,49l46.9,49l46.9,49l49-46.9C2568.9,932.4,2590.2,900.4,2590.2,885.5z M7547.9,859.9c-44.8-42.6-59.6-46.9-98-27.7c-57.5,32-57.5,61.8,2.1,123.6l46.9,49l49-46.9l51.1-46.9L7547.9,859.9z M9503.6,857.8l-53.3-53.3l-46.9,46.9l-46.9,46.9l51.1,53.3l51.1,53.3l49-46.9l51.1-46.9L9503.6,857.8z M860.3,934.5l46.9-49l-53.3-51.1l-53.3-49l-53.3,49l-53.3,51.1l46.9,49c25.6,27.7,51.1,49,59.6,49C809.2,983.5,834.7,962.2,860.3,934.5z M2820.3,934.5c46.9-49,42.6-68.2-23.4-119.3c-32-25.6-44.7-23.4-89.5,19.2l-53.3,51.1l46.9,49C2758.5,994.2,2762.8,994.2,2820.3,934.5z M7294.3,934.5l46.9-49l-51.1-49c-42.6-38.4-59.6-44.7-93.7-25.6c-63.9,34.1-68.2,70.3-19.2,125.7C7230.4,994.2,7236.8,994.2,7294.3,934.5z M9254.4,934.5l46.9-49l-53.3-51.1l-53.3-49l-53.3,49l-53.3,51.1l46.9,49c25.6,27.7,51.1,49,59.6,49C9203.2,983.5,9228.8,962.2,9254.4,934.5z M1115.9,913.2l46.9-49l-49-46.9l-49-46.9l-51.1,53.3c-49,51.1-49,53.3-10.6,95.9C1052,972.8,1060.5,972.8,1115.9,913.2z M1418.5,842.9c0-14.9-21.3-42.6-46.9-59.6c-44.7-32-51.1-29.8-100.1,19.2l-53.3,51.1l51.1,55.4l51.1,53.3l49-46.9C1397.2,889.8,1418.5,857.8,1418.5,842.9z M3080.2,908.9c49-51.1,49-53.3,10.6-95.9c-51.1-55.4-76.7-53.3-123.6,12.8c-38.3,51.1-38.3,55.4-2.1,95.9C3012.1,972.8,3020.6,972.8,3080.2,908.9z M7032.3,919.6c38.3-42.6,38.3-44.7-17-102.3l-57.5-55.4l-46.9,46.9l-46.9,46.9l51.1,53.3C6974.8,972.8,6983.3,975,7032.3,919.6z M8721.7,798.1c-57.5-55.4-59.6-55.4-102.3-17c-53.3,49-53.3,70.3,4.3,132.1l46.9,51.1l53.3-55.4l55.4-53.3L8721.7,798.1z M8992.3,919.6c38.3-42.6,38.3-44.7-10.7-95.9l-51.1-53.3l-49,46.9l-49,46.9l46.9,49C8934.8,972.8,8943.3,972.8,8992.3,919.6z M1644.3,772.6l-51.1-51.1l-53.3,61.8l-55.4,61.8l46.9,49l44.8,46.9l59.6-57.5l59.7-57.5L1644.3,772.6z M3340.2,904.7c49-44.7,49-76.7-4.3-123.6c-42.6-38.3-44.7-38.3-100.1,17c-55.4,55.4-55.4,57.5-17,100.1C3265.6,949.4,3289,951.5,3340.2,904.7z M6776.6,898.3c38.3-42.6,38.3-44.7-17-100.1c-55.4-55.4-57.5-55.4-100.1-17c-51.1,46.9-53.3,70.3-6.4,121.4C6697.8,951.5,6729.7,951.5,6776.6,898.3z M8466.1,793.9c-27.7-29.8-51.1-59.7-55.4-63.9c-2.1-6.4-27.7,12.8-57.5,40.5l-53.3,51.1l57.5,59.7l57.5,59.7l49-46.9l49-46.9L8466.1,793.9z M1906.4,857.8l42.6-59.7l-49-46.9l-46.9-44.7l-46.9,49c-55.4,59.7-57.5,74.6-10.6,125.7C1842.4,932.4,1855.2,930.2,1906.4,857.8z M3608.6,870.6l46.9-49l-53.3-51.1l-55.4-51.1l-51.1,61.8c-44.7,59.6-46.9,66-17,102.3C3523.4,932.4,3553.2,930.2,3608.6,870.6z M6516.7,883.4c29.8-36.2,27.7-42.6-17-102.3l-51.1-61.8l-55.4,51.1l-53.3,51.1l46.9,49C6442.1,930.2,6472,932.4,6516.7,883.4z M8197.7,883.4c51.1-44.7,49-74.6-10.7-130l-49-46.9l-46.9,49l-46.9,51.1l44.7,55.4C8140.1,930.2,8146.5,930.2,8197.7,883.4z M2164.1,845l51.1-53.3l-44.8-44.7c-34.1-36.2-53.3-40.5-87.3-21.3c-61.8,32-74.6,87.4-34.1,132.1C2096,908.9,2104.5,908.9,2164.1,845z M7948.4,855.7c38.3-42.6,38.3-44.7-17-102.3l-57.5-55.4l-46.9,46.9l-46.9,46.9l51.1,53.3C7890.9,908.9,7899.4,911.1,7948.4,855.7z M481.1,738.5c-27.7-34.1-32-32-57.5,2.1c-14.9,21.3-27.7,61.8-27.7,91.6v55.4l57.5-57.5C502.4,781.1,506.6,768.3,481.1,738.5z M2430.4,821.6c34.1-53.3,34.1-57.5-8.5-100.1l-44.8-44.7l-59.7,57.5l-57.5,59.7l53.3,40.5C2381.4,887.6,2385.7,887.6,2430.4,821.6z M7680,832.2l53.3-42.6l-57.5-57.5l-57.5-55.4l-44.7,44.7c-42.6,42.6-42.6,46.9-8.5,100.1C7609.6,887.6,7613.9,887.6,7680,832.2z M9599.5,828c0-27.7-12.8-66-27.7-87.3c-25.6-34.1-29.8-34.1-55.4-4.3c-21.3,25.6-19.2,40.5,12.8,85.2C9578.2,889.8,9599.5,891.9,9599.5,828z M732.4,806.7l46.9-49l-55.4-53.3l-55.4-51.1l-53.3,61.8L562,779l46.9,38.4C668.5,866.3,677.1,866.3,732.4,806.7z M2692.5,806.7l46.9-49l-53.3-51.1c-51.1-49-53.3-49-95.9-10.7c-51.1,46.9-53.3,70.3-6.4,121.4C2628.6,866.3,2637.1,866.3,2692.5,806.7z M3762,836.5c0-10.7,6.4-38.4,14.9-59.7c12.8-36.2,10.7-36.2-32,2.1c-25.6,21.3-40.5,49-34.1,57.5C3725.8,862.1,3762,859.9,3762,836.5z M6276,825.8c0-14.9-17-42.6-36.2-57.5c-32-25.6-34.1-25.6-21.3,8.5c8.5,21.3,14.9,49,14.9,59.7s10.7,19.2,21.3,19.2C6267.4,855.7,6276,842.9,6276,825.8z M7409.4,819.4c49-44.7,49-76.7-4.3-123.6c-42.6-38.3-44.7-38.3-95.9,10.7l-53.3,51.1l46.9,49C7358.2,864.2,7358.2,866.3,7409.4,819.4z M9386.5,817.3l46.9-38.4l-53.3-63.9l-53.3-61.8l-55.4,51.1l-55.4,53.3l46.9,49C9318.3,866.3,9326.8,866.3,9386.5,817.3z M988.1,785.4l46.9-49l-49-46.9l-49-46.9l-51.1,53.3c-49,51.1-49,53.3-10.6,95.9C924.2,845,932.7,845,988.1,785.4z M1248,674.6l-51.1-55.4l-53.3,53.3l-53.3,53.3l51.1,55.4l51.1,55.4l53.3-53.3l53.3-53.3L1248,674.6z M2948.1,785.4l46.9-49l-49-46.9l-49-46.9l-51.1,53.3c-49,51.1-49,53.3-10.6,95.9C2884.2,845,2892.8,845,2948.1,785.4z M3250.7,715.1c0-14.9-21.3-42.6-46.9-59.6c-44.7-32-51.1-29.8-100.1,19.2l-53.3,51.1l51.1,55.4l51.1,53.3l49-46.9C3229.4,761.9,3250.7,730,3250.7,715.1z M6915.1,706.5c-38.3-70.3-74.6-87.4-123.6-51.1c-59.6,40.5-59.6,68.2,0,130l46.9,49l46.8-44.7C6921.5,755.5,6930,734.2,6915.1,706.5z M7160.1,791.8c38.3-42.6,38.3-44.7-10.7-95.9l-51.1-53.3l-46.8,44.7c-46.9,44.7-46.9,49-12.8,95.9C7083.4,845,7111.1,847.1,7160.1,791.8z M8853.8,674.6l-51.1-55.4l-53.3,53.3l-53.3,53.3l51.1,55.4l51.1,55.4l53.3-53.3L8905,730L8853.8,674.6z M9120.1,791.8c38.3-42.6,38.3-44.7-10.7-95.9l-51.1-53.3l-49,46.9l-49,46.9l46.9,49C9062.6,845,9071.2,845,9120.1,791.8z M1512.2,751.3l59.6-61.8l-55.4-36.2c-55.4-36.2-59.7-36.2-108.7,10.7l-53.3,51.1l46.9,49c25.6,27.7,46.9,49,49,49C1452.6,813.1,1480.3,785.4,1512.2,751.3z M3480.8,649l-46.9-49l-59.7,57.5l-59.6,57.5l46.9,49l46.9,49l59.6-57.5l59.6-57.5L3480.8,649z M6623.2,659.7l-57.5-59.6l-49,46.9l-49,46.9l57.5,59.7l57.5,59.6l49-46.9l49-46.9L6623.2,659.7z M8593.9,670.3c-55.4-57.5-74.6-59.6-127.8-12.8c-38.3,34.1-38.3,36.2,19.2,95.9l57.5,59.6l49-46.9l49-46.9L8593.9,670.3z M1780.6,738.5l51.1-53.3l-46.9-49c-36.2-36.2-55.4-40.5-83.1-23.4c-68.2,42.6-83.1,87.4-40.5,134.2C1712.5,804.5,1721,802.4,1780.6,738.5z M3727.9,751.3c44.7-49,38.3-104.4-12.8-138.5c-27.7-17.1-46.9-10.6-91.6,29.8l-53.3,51.1l46.9,49C3672.5,802.4,3681,802.4,3727.9,751.3z M6376.1,744.9l49-46.9l-46.9-49c-55.4-59.6-85.2-61.8-132.1-10.6c-32,38.4-32,44.7,10.7,95.9C6310,804.5,6314.3,804.5,6376.1,744.9z M8334,747c42.6-46.9,27.7-91.6-40.5-134.2c-27.7-17.1-46.9-12.8-83.1,23.4l-46.9,49l51.1,53.3C8274.3,802.4,8282.9,804.5,8334,747z M2036.3,717.2l51.1-53.3l-46.9-46.9l-46.9-46.9l-57.5,55.4c-55.4,57.5-55.4,59.6-17,102.3C1968.1,783.2,1976.7,781.1,2036.3,717.2z M8076.2,727.8c38.3-42.6,38.3-44.7-17-102.3l-57.5-55.4l-46.9,46.9l-46.9,46.9l51.1,53.3C8018.7,781.1,8027.2,783.2,8076.2,727.8z M604.6,585.1L557.8,534l-53.3,53.3c-51.1,51.1-51.1,53.3-14.9,108.7l38.3,57.5l61.8-59.7l61.8-59.6L604.6,585.1z M2296.2,712.9c49-44.7,49-76.7-6.4-125.7c-44.8-40.5-44.8-38.3-95.9,21.3c-51.1,57.5-51.1,61.8-17,100.1C2221.7,757.7,2245.1,759.8,2296.2,712.9z M7818.4,708.7c34.1-38.4,34.1-42.6-17.1-100.1c-51.1-59.6-51.1-61.8-95.9-21.3c-53.3,49-55.4,72.4-8.5,123.6C7741.7,759.8,7773.7,759.8,7818.4,708.7z M9505.8,695.9c34.1-53.3,34.1-57.5-12.8-106.5l-51.1-53.3l-49,46.9l-49,46.9l57.5,59.7c32,32,59.6,59.6,63.9,59.6C9467.4,749.1,9486.6,725.7,9505.8,695.9z M864.5,674.6l49-53.3l-49-53.3l-51.1-53.3l-49,46.9c-57.5,55.4-59.6,74.6-12.8,127.8C796.4,738.5,804.9,738.5,864.5,674.6z M2562.5,681l49-46.9l-46.9-49l-46.9-49l-59.7,57.5c-55.4,53.3-57.5,59.6-23.4,95.9C2479.4,738.5,2502.9,738.5,2562.5,681z M2824.6,568.1l-51.1-53.3l-49,46.9c-61.8,57.5-61.8,87.3,0,130c42.6,29.8,51.1,29.8,98-19.2l53.3-49L2824.6,568.1z M7319.9,634.1c0-14.9-21.3-46.9-49-72.4l-49-46.9l-51.1,53.3l-49,53.3l46.9,51.1c46.8,49,53.3,51.1,100.1,19.2C7296.5,674.6,7319.9,646.9,7319.9,634.1z M7552.1,693.8l49-34.1l-59.6-61.8l-59.7-61.8l-49,46.9l-49,46.9l46.9,49C7486.1,736.4,7488.2,738.5,7552.1,693.8z M9241.6,691.6c51.1-44.7,49-74.6-10.7-130l-49-46.9l-51.1,53.3l-49,53.3l49,53.3C9190.4,738.5,9190.4,738.5,9241.6,691.6z M1124.5,553.1l-46.9-46.9l-57.5,55.4l-57.5,57.5l53.3,42.6l51.1,42.6l53.3-53.3l51.1-51.1L1124.5,553.1z M3084.5,553.1l-46.9-46.9l-53.3,51.1l-53.3,51.1l46.9,49l46.9,51.1l53.3-55.4l53.3-53.3L3084.5,553.1z M7011,559.5l-53.3-53.3l-46.9,46.9L6864,600l51.1,53.3l51.1,53.3l49-46.9l51.1-46.9L7011,559.5z M9024.3,619.2c0-6.4-23.4-34.1-53.3-61.8l-53.3-51.1l-46.9,46.9L8824,600l49,51.1c49,51.1,51.1,51.1,100.1,17.1C9000.8,649,9024.3,625.6,9024.3,619.2z M1380.1,649c49-44.7,49-76.7-4.3-123.6c-42.6-38.3-44.7-38.3-95.9,10.6l-53.3,51.1l46.9,49C1329,693.8,1329,695.9,1380.1,649z M3350.8,638.4c61.8-57.5,61.8-72.4-4.3-115c-53.3-34.1-57.5-34.1-106.5,12.8l-53.3,51.1l46.9,49C3289,695.9,3289,695.9,3350.8,638.4z M6761.7,636.2l46.9-49l-53.3-51.1c-49-46.9-53.3-46.9-106.5-12.8c-66,42.6-66,51.1-6.4,112.9C6699.9,695.9,6704.2,695.9,6761.7,636.2z M8721.7,636.2l46.9-49l-53.3-51.1c-51.1-49-53.3-49-95.9-10.6c-51.1,46.9-53.3,70.3-6.4,121.4C8657.8,695.9,8666.4,695.9,8721.7,636.2z M1646.4,617.1l49-46.9l-46.9-49c-57.5-61.8-72.4-61.8-115,4.3c-34.1,51.1-34.1,57.5,2.1,95.9C1582.5,674.6,1586.8,674.6,1646.4,617.1z M3612.9,610.7c49-51.1,49-53.3,10.7-95.9c-51.1-57.5-83.1-53.3-127.8,12.8c-34.1,51.1-34.1,57.5,2.1,95.9C3544.7,674.6,3553.2,674.6,3612.9,610.7z M6497.5,623.4c36.2-38.4,36.2-44.7,2.1-95.9c-44.7-66-76.7-70.3-127.8-12.8c-38.3,42.6-38.3,44.7,10.7,95.9C6442.1,674.6,6450.7,674.6,6497.5,623.4z M8457.6,623.4c36.2-38.4,36.2-44.7,2.1-95.9c-44.7-66-53.3-68.2-115.1-10.7l-46.8,44.7l46.8,51.1C8402.2,674.6,8410.7,674.6,8457.6,623.4z M1908.5,595.7c53.3-59.6,53.3-70.3-4.3-110.8c-44.7-32-51.1-29.8-100.1,19.2c-51.1,51.1-51.1,53.3-12.8,95.9C1840.3,653.3,1853.1,653.3,1908.5,595.7z M2206.7,525.4c0-14.9-19.2-42.6-44.7-66c-44.8-40.5-44.8-40.5-95.9,23.4l-49,61.8l44.7,49l46.9,49l49-46.9C2185.4,570.2,2206.7,538.2,2206.7,525.4z M7935.6,491.4c-51.1-72.4-55.4-72.4-108.7-25.6c-49,44.7-49,68.2,8.5,127.8l46.9,49l46.9-44.7l49-46.9L7935.6,491.4z M8204,600c38.3-42.6,38.3-44.7-12.8-98c-53.3-53.3-55.4-53.3-104.4-12.8c-49,40.5-49,42.6-14.9,98C8116.7,653.3,8152.9,657.5,8204,600z M2436.8,457.3l-46.9-49l-59.7,57.5l-59.7,57.5l46.9,49l46.9,49l59.7-57.5l59.6-57.5L2436.8,457.3z M3804.6,542.5v-78.8l-46.9,44.7c-38.3,38.3-40.5,51.1-17,78.8C3783.3,640.5,3804.6,627.7,3804.6,542.5z M6254.7,587.2c23.4-27.7,21.3-40.5-17-78.8l-46.9-44.7v78.8C6190.7,627.7,6212,640.5,6254.7,587.2z M7667.2,467.9l-57.5-59.6l-49,46.9c-46.9,44.7-46.9,46.9-10.7,89.5c59.6,72.4,76.7,76.7,125.7,29.8l49-46.9L7667.2,467.9z M736.7,546.7c49-51.1,49-53.3,10.6-95.9c-51.1-57.5-87.3-53.3-130,10.6c-34.1,51.1-34.1,57.5,2.1,95.9C668.5,610.7,677.1,610.7,736.7,546.7z M2696.8,546.7l51.1-53.3l-46.9-49c-36.2-36.2-55.4-40.5-83.1-23.4c-68.2,42.6-83.1,87.3-40.5,134.2C2628.6,612.8,2637.1,610.7,2696.8,546.7z M7417.9,555.3c42.6-46.9,27.7-91.6-40.5-134.2c-27.7-17.1-46.9-12.8-83.1,23.4l-46.9,49l51.1,53.3C7358.2,610.7,7366.8,612.8,7417.9,555.3z M9375.8,557.4c36.2-38.3,36.2-44.7,2.1-95.9c-42.6-63.9-78.8-68.2-129.9-10.6c-38.3,42.6-38.3,44.7,10.6,95.9C9318.3,610.7,9326.8,610.7,9375.8,557.4z M992.4,525.4l51.1-53.3l-46.9-46.9l-46.9-46.9l-57.5,55.4c-55.4,57.5-55.4,59.6-17,102.3C924.2,591.5,932.7,589.4,992.4,525.4z M2952.4,525.4l51.1-53.3l-46.9-46.9l-46.9-46.9l-53.3,51.1c-49,51.1-51.1,57.5-19.2,102.3C2877.8,591.5,2890.6,591.5,2952.4,525.4z M7158,531.8c32-44.7,29.8-51.1-19.2-102.3l-53.3-51.1l-46.9,46.9l-46.9,46.9l51.1,53.3C7104.7,591.5,7117.5,591.5,7158,531.8z M9120.1,536.1c38.3-42.6,38.3-44.7-17-102.3l-57.5-55.4l-46.9,46.9l-46.9,46.9l51.1,53.3C9062.6,589.4,9071.2,591.5,9120.1,536.1z M1265.1,508.4l46.9-49l-53.3-51.1l-55.4-51.1l-55.4,57.5c-55.4,55.4-55.4,57.5-17,100.1C1179.8,570.2,1209.7,568.1,1265.1,508.4z M3225.1,508.4l46.9-49l-53.3-51.1l-55.4-51.1l-53.3,55.4l-55.4,53.3l49,46.9C3163.3,568.1,3169.7,568.1,3225.1,508.4z M6889.5,508.4l46.9-49l-53.3-51.1l-53.3-49l-53.3,49l-53.3,51.1l46.9,49c25.6,27.7,51.1,49,59.6,49C6838.4,557.4,6864,536.1,6889.5,508.4z M8862.4,516.9c34.1-38.4,34.1-42.6-17.1-100.1l-51.1-61.8l-55.4,51.1l-55.4,53.3l46.9,49C8785.7,568.1,8815.5,570.2,8862.4,516.9z M1518.6,489.2l49-46.9l-46.9-49l-46.9-49l-49,46.9c-57.5,55.4-61.8,91.6-10.7,121.4C1463.2,542.5,1461.1,542.5,1518.6,489.2z M1780.6,376.3l-51.1-55.4l-53.3,53.3l-53.3,53.3l51.1,55.4l51.1,55.4l53.3-53.3l53.3-53.3L1780.6,376.3z M3480.8,487.1l46.9-49l-49-46.9l-49-46.9l-51.1,53.3c-49,51.1-49,53.3-10.7,95.9C3416.9,546.7,3425.4,546.7,3480.8,487.1z M3804.6,333.7c0-38.3-8.5-76.7-17-83.1c-10.7-6.4-59.7,32-110.8,83.1l-93.7,95.9l53.3,55.4l51.1,53.3l57.5-63.9C3785.4,429.6,3804.6,384.8,3804.6,333.7z M6320.7,335.8c-53.3-53.3-102.3-91.6-112.9-85.2c-38.3,25.6-17,155.5,40.5,221.6l55.4,68.2l55.4-55.4l53.3-55.4L6320.7,335.8z M6627.5,493.5c38.3-42.6,38.3-44.7-10.7-95.9l-51.1-53.3l-49,46.9l-49,46.9l46.9,49C6570,546.7,6578.5,546.7,6627.5,493.5z M8321.2,376.3l-51.1-55.4l-53.3,53.3l-53.3,53.3l51.1,55.4l51.1,55.4l53.3-53.3l53.3-53.3L8321.2,376.3z M8579,514.8c53.3-29.8,51.1-59.6-6.4-121.4l-46.9-49l-49,46.9l-49,46.9l46.9,49C8527.9,544.6,8523.6,542.5,8579,514.8z M2068.3,382.7c-23.4-57.5-78.8-63.9-132.1-12.8l-49,46.9l46.9,49l46.9,51.1l49-51.1C2061.9,436,2074.6,401.9,2068.3,382.7z M8059.2,369.9c-44.7-42.6-59.6-46.9-98-27.7c-57.5,32-57.5,61.8,2.1,123.6l46.9,49l49-46.9l51.1-46.9L8059.2,369.9z M2304.8,448.7c53.3-49,46.9-93.7-17.1-127.8c-34.1-19.2-53.3-12.8-93.7,25.6l-51.1,49l46.9,49C2245.1,504.1,2245.1,504.1,2304.8,448.7z M7805.6,444.5l46.9-49l-51.1-49c-42.6-38.4-59.6-44.7-93.7-25.6c-63.9,34.1-68.2,70.3-19.2,125.7C7741.7,504.1,7748.1,504.1,7805.6,444.5z M606.8,421.1c29.8-32,38.3-55.4,25.6-63.9c-12.8-8.5-36.2,14.9-55.4,51.1C536.5,485,542.8,489.2,606.8,421.1z M907.1,352.9c0-14.9-21.3-42.6-46.9-59.6c-44.7-32-51.1-29.8-100.1,19.2l-53.3,51.1l51.1,55.4l51.1,53.3l49-46.9C885.8,399.7,907.1,367.8,907.1,352.9z M2568.9,418.9l51.1-53.3l-46.9-46.9l-46.9-46.9l-57.5,55.4c-55.4,57.5-55.4,59.6-17,102.3C2500.7,485,2509.3,482.8,2568.9,418.9z M2867.2,355c0-14.9-19.2-42.6-42.6-63.9c-42.6-38.3-44.7-38.3-100.1,17l-57.5,55.4l51.1,55.4l51.1,53.3l49-46.9C2845.9,399.7,2867.2,367.8,2867.2,355z M7543.6,429.6c38.3-42.6,38.3-44.7-17-102.3l-57.5-55.4l-46.9,46.9l-46.9,46.9l51.1,53.3C7486.1,482.8,7494.6,485,7543.6,429.6z M9239.4,314.5c-40.5-42.6-59.6-49-91.6-32c-63.9,34.1-70.3,81-14.9,138.5l49,53.3l53.3-53.3l53.3-53.3L9239.4,314.5z M9418.4,408.3c-19.2-36.2-42.6-59.6-55.4-51.1c-12.8,8.5-4.3,32,25.5,63.9C9452.5,489.2,9458.9,485,9418.4,408.3z M1137.2,286.8l-46.9-49l-59.7,57.5l-59.6,57.5l46.9,49l46.9,49l59.6-57.5l59.6-57.5L1137.2,286.8z M7287.9,408.3c38.3-42.6,38.3-44.7-17-100.1c-55.4-55.4-57.5-55.4-100.1-17c-51.1,46.9-53.3,70.3-6.4,121.4C7209.1,461.5,7241.1,461.5,7287.9,408.3z M8966.7,297.5l-57.5-59.7l-49,46.9l-49,46.9l57.5,59.7l57.5,59.7l49-46.9l49-46.9L8966.7,297.5z M1395,367.8l42.6-59.7l-49-46.9l-46.9-44.7l-46.9,49c-55.4,59.7-57.5,74.6-10.7,125.7C1331.1,442.4,1343.9,440.2,1395,367.8z M3097.3,380.6l46.9-49l-51.1-49l-53.3-49l-53.3,59.7c-46.9,57.5-49,63.9-19.2,100.1C3012.1,442.4,3041.9,440.2,3097.3,380.6z M7028,393.3c29.8-36.2,27.7-42.6-19.2-100.1l-53.3-59.7l-53.3,49l-51.1,49l46.9,49C6953.4,440.2,6983.3,442.4,7028,393.3z M8709,393.3c51.1-44.7,49-74.6-10.7-130l-49-46.9l-46.9,49l-46.9,51.1l44.7,55.4C8651.4,440.2,8657.8,440.2,8709,393.3z M1663.5,259.1c-51.1-55.4-76.7-53.3-125.7,14.9c-40.5,55.4-40.5,55.4,8.5,95.9c49,40.5,51.1,40.5,104.4-12.8C1701.8,303.9,1701.8,301.7,1663.5,259.1z M3365.7,361.4c32-42.6,29.8-51.1-12.8-95.9l-46.9-49l-59.7,57.5c-55.4,53.3-57.5,59.6-23.4,95.9C3269.9,421.1,3327.4,418.9,3365.7,361.4z M3770.5,116.4c-8.5-32-21.3-68.2-29.8-76.7c-8.5-8.5-74.6,46.9-147,125.7L3461.6,306l49,53.3l49,51.1l112.9-117.2C3770.5,191,3783.3,167.5,3770.5,116.4z M6489,261.3c-63.9-89.5-228-242.9-238.6-221.6c-6.4,8.5-17,44.7-25.6,76.7c-12.8,51.1,2.1,74.6,95.9,176.8l110.8,115l49-44.7C6529.5,316.7,6529.5,316.7,6489,261.3z M6746.8,387c53.3-29.8,51.1-68.2-8.5-123.6l-49-46.9l-46.9,49c-42.6,44.7-44.7,53.3-12.8,95.9C6665.8,414.7,6687.1,418.9,6746.8,387z M8483.1,342.2c6.4-12.8-10.7-49-42.6-78.8l-55.4-55.4l-46.9,46.9l-46.9,46.9l49,51.1C8391.5,406.1,8444.8,401.9,8483.1,342.2z M1919.1,331.6c34.1-53.3,34.1-57.5-8.5-100.1l-44.8-44.7l-59.6,57.5l-57.5,59.7l53.3,40.5C1870.1,397.6,1874.4,397.6,1919.1,331.6z M8193.4,344.4l53.3-40.5l-57.5-59.7l-59.6-57.5l-46.9,44.7c-42.6,44.7-42.6,49-8.5,100.1C8116.7,397.6,8125.2,397.6,8193.4,344.4z M2181.2,316.7l46.9-49l-53.3-51.1c-51.1-49-53.3-49-95.9-10.7c-51.1,46.9-53.3,70.3-6.4,121.4C2117.3,376.3,2125.8,376.3,2181.2,316.7z M7920.7,329.4c49-44.7,49-76.7-4.3-123.6c-42.6-38.3-44.7-38.3-95.9,10.7l-53.3,51.1l46.9,49C7869.5,374.2,7869.5,376.3,7920.7,329.4z M762.3,212.3c-36.2-36.2-123.6,49-102.3,102.3c12.8,34.1,19.2,32,72.4-19.2C777.2,250.6,783.6,233.6,762.3,212.3z M2436.8,295.4l46.9-49l-49-46.9l-49-46.9l-51.1,53.3c-49,51.1-49,53.3-10.6,95.9C2372.9,355,2381.4,355,2436.8,295.4z M2739.4,225c0-14.9-21.3-42.6-46.9-59.6c-44.7-32-51.1-29.8-100.1,19.2l-53.3,51.1l51.1,55.4l51.1,53.3l49-46.9C2718.1,271.9,2739.4,240,2739.4,225z M7403,184.6l-53.3-55.4l-59.7,46.9l-57.5,46.9l57.5,59.7l59.7,61.8l53.3-53.3l55.4-53.3L7403,184.6z M7671.4,301.7c38.3-42.6,38.3-44.7-12.8-95.9c-51.1-51.1-51.1-51.1-100.1-10.6c-49,40.5-49,42.6-10.7,93.7C7594.7,355,7620.3,357.1,7671.4,301.7z M9343.8,293.2c0-14.9-19.2-44.7-42.6-66c-34.1-29.8-49-34.1-68.2-14.9c-19.2,19.2-12.8,38.4,25.6,78.8C9307.6,342.2,9343.8,344.4,9343.8,293.2z M1035,203.7c0-14.9-19.2-38.3-44.7-53.3C954,131.3,937,135.6,894.4,176l-51.1,49l46.9,49l46.9,49l49-46.9C1013.7,250.6,1035,218.7,1035,203.7z M2980.1,169.6c-44.7-49-68.2-49-127.8,8.5l-49,46.9l46.9,49l46.9,49l59.6-57.5C3012.1,212.3,3014.2,205.9,2980.1,169.6z M7145.2,180.3c-55.4-57.5-74.6-59.6-127.8-12.8c-38.3,34.1-38.3,36.2,19.2,95.9l57.5,59.6l49-46.9l49-46.9L7145.2,180.3z M9101,176c-51.1-51.1-53.3-51.1-108.7-14.9l-57.5,38.4l59.6,61.8l59.7,61.8l49-46.9l51.1-46.9L9101,176z M1269.3,248.5l51.1-53.3l-46.9-49c-36.2-36.2-55.4-40.5-83.1-23.4c-68.2,42.6-83.1,87.4-40.5,134.2C1201.2,314.5,1209.7,312.4,1269.3,248.5z M3229.4,248.5l51.1-53.3l-46.9-49c-36.2-36.2-55.4-40.5-83.1-23.4c-68.2,42.6-83.1,87.4-40.5,134.2C3161.2,314.5,3169.7,312.4,3229.4,248.5z M6885.3,257c42.6-46.9,27.7-91.6-40.5-134.2c-27.7-17.1-46.9-12.8-83.1,23.4l-46.9,49l51.1,53.3C6825.6,312.4,6834.1,314.5,6885.3,257z M8845.3,257c42.6-46.9,27.7-91.6-40.5-134.2c-27.7-17.1-46.9-12.8-83.1,23.4l-46.9,49l51.1,53.3C8785.7,312.4,8794.2,314.5,8845.3,257z M1525,227.2l51.1-53.3l-46.9-46.9l-46.9-46.9l-57.5,55.4c-55.4,57.5-55.4,59.6-17,102.3C1456.8,293.2,1465.3,291.1,1525,227.2z M3576.6,133.4c78.8-81,142.7-155.5,142.7-166.2c-2.1-51.1-29.8-112.9-53.3-112.9c-14.9,0-95.9,76.7-181.1,170.4c-151.3,166.2-153.4,172.6-117.2,213c21.3,23.4,44.8,42.6,53.3,42.6C3429.6,280.4,3499.9,214.4,3576.6,133.4z M6627.5,237.8c36.2-40.5,34.1-46.9-117.2-213c-85.2-93.8-166.2-170.4-181.1-170.4c-14.9,0-34.1,29.8-42.6,66c-14.9,61.8-4.3,78.8,130,213.1c81,81,151.3,147,159.8,147C6582.8,280.4,6606.2,261.3,6627.5,237.8z M8587.5,237.8c38.3-42.6,38.3-44.7-17-102.3L8513,80.2l-46.9,46.9l-46.9,46.9l51.1,53.3C8530,291.1,8538.5,293.2,8587.5,237.8z M1784.9,222.9c49-44.7,49-76.7-6.4-125.7c-44.8-40.5-44.8-38.4-95.9,21.3c-51.1,57.5-51.1,61.8-17,100.1C1710.3,267.7,1733.8,269.8,1784.9,222.9z M8329.7,218.7c34.1-38.4,34.1-42.6-17.1-100.1c-51.1-59.7-51.1-61.8-95.9-21.3c-53.3,49-55.4,72.4-8.5,123.6C8253,269.8,8285,269.8,8329.7,218.7z M2051.2,191l49-46.9l-46.9-49l-46.9-49l-49,46.9c-55.4,51.1-61.8,81-23.4,119.3C1970.3,248.5,1993.7,244.2,2051.2,191z M2313.3,78l-51.1-53.3l-49,46.9c-61.8,57.5-61.8,87.3,0,129.9c42.6,29.8,51.1,29.8,98-19.2l53.3-49L2313.3,78z M7788.6,78l-51.1-55.4l-53.3,53.3l-53.3,53.3l51.1,55.4l51.1,55.4l53.3-53.3l53.3-53.3L7788.6,78z M8046.4,216.5c53.3-29.8,51.1-59.6-6.4-121.4l-46.9-49l-49,46.9l-49,46.9l46.9,49C7995.3,246.3,7991,244.2,8046.4,216.5z M2573.2,63.1l-46.9-46.9l-53.3,51.1l-53.3,51.1l46.9,49l46.9,51.1l53.3-55.4l53.3-53.3L2573.2,63.1z M7522.3,69.5L7469,16.3l-46.9,46.9l-46.9,46.9l51.1,53.3l51.1,53.3l49-46.9l51.1-46.9L7522.3,69.5z M875.2,152.6C915.7,107.9,905,46.1,856,46.1c-49,0-102.3,87.4-72.4,121.4C813.4,205.9,830.5,201.6,875.2,152.6z M2828.8,159c61.8-72.4,61.8-89.5,6.4-125.7c-53.3-34.1-57.5-34.1-106.5,12.8l-53.3,51.1l46.9,49C2777.7,205.9,2786.2,205.9,2828.8,159z M7273,146.2l46.9-49l-53.3-51.1c-49-46.9-53.3-46.9-106.5-12.8c-66,42.6-66,51.1-6.4,112.9C7211.2,205.9,7215.5,205.9,7273,146.2z M9209.6,171.8c29.8-29.8-23.4-125.7-70.3-125.7c-49,0-59.7,61.8-19.2,106.5C9164.9,201.6,9177.7,203.7,9209.6,171.8z M1137.2,124.9l46.9-49l-49-46.9l-49-46.9L1035,35.4c-49,51.1-49,53.3-10.7,95.9C1073.3,184.6,1081.9,184.6,1137.2,124.9z M3101.5,120.7c49-51.1,49-53.3,10.7-95.9c-51.1-57.5-83.1-53.3-127.8,12.8c-34.1,51.1-34.1,57.5,2.1,95.9C3033.4,184.6,3041.9,184.6,3101.5,120.7z M7008.8,133.4c36.2-38.4,36.2-44.7,2.1-95.9c-44.7-66-76.7-70.3-127.8-12.8c-38.3,42.6-38.3,44.7,10.7,95.9C6953.4,184.6,6962,184.6,7008.8,133.4z M8971,131.3c38.3-42.6,38.3-44.7-12.8-98L8905-17.8l-49,44.7l-46.9,44.8l46.9,51.1C8913.5,184.6,8922,184.6,8971,131.3z M1399.3,97.2l51.1-55.4l-51.1-40.5L1346-41.3L1292.8,12c-51.1,53.3-51.1,55.4-12.8,98C1329,165.4,1337.5,163.3,1399.3,97.2z M1695.4,35.4c0-14.9-19.2-42.6-40.5-63.9c-40.5-34.1-44.8-34.1-98,23.4l-53.3,57.5l46.9,51.1l46.9,49l49-46.9C1674.1,80.2,1695.4,48.2,1695.4,35.4z M3493.6-34.9C3632-184,3653.3-216,3634.2-252.2c-10.7-21.3-29.8-44.7-38.3-51.1c-10.7-6.4-102.3,74.6-206.7,179C3201.7,65.3,3199.6,65.3,3240,110c21.3,23.4,51.1,40.5,63.9,38.3C3316.7,144.1,3402,63.1,3493.6-34.9z M6755.3,110c40.5-44.7,38.3-46.9-149.1-234.4c-104.4-104.4-196-185.4-206.7-179c-8.5,6.4-25.6,29.8-38.3,51.1c-19.2,34.1,4.3,68.2,142.7,221.6c91.6,100.1,176.8,183.2,189.6,183.2C6706.3,152.6,6734,133.4,6755.3,110z M8434.1-0.8c-53.3-55.4-59.6-57.5-95.9-23.4c-49,44.7-49,68.2,8.5,127.8l46.9,49l49-46.9l49-46.9L8434.1-0.8z M8715.4,110c38.3-42.6,38.3-44.7-12.8-98c-53.3-53.3-55.4-53.3-104.4-12.8c-46.9,38.3-46.9,40.5-10.6,95.9C8632.3,163.3,8664.2,167.5,8715.4,110z M1923.4,69.5l44.7-59.6l-44.7-44.7l-44.7-46.9L1819-24.2l-59.6,57.5l46.9,49C1863.7,144.1,1870.1,144.1,1923.4,69.5z M8187,84.4l49-46.9l-57.5-59.6l-57.5-59.6L8074.1-37l-49,44.7l44.8,61.8C8125.2,144.1,8125.2,144.1,8187,84.4z M2185.4,56.7c49-51.1,49-53.3,10.6-95.9c-51.1-57.5-87.3-53.3-130,10.7c-34.1,51.1-34.1,57.5,2.1,95.9C2117.3,120.7,2125.8,120.7,2185.4,56.7z M7927.1,67.4c36.2-38.3,36.2-44.7,2.1-95.9c-42.6-63.9-78.8-68.2-130-10.7c-38.3,42.6-38.3,44.7,10.7,95.9C7869.5,120.7,7878.1,120.7,7927.1,67.4z M2445.4-64.7l-46.9-46.9l-59.6,57.5l-57.5,59.6l51.1,42.6l53.3,42.6l53.3-53.3l53.3-55.4L2445.4-64.7z M7703.4,5.6c0-8.5-23.4-38.3-53.3-66l-53.3-51.1L7550-64.7l-46.9,46.9l49,51.1c46.9,49,53.3,51.1,100.1,19.2C7680,35.4,7703.4,14.1,7703.4,5.6z M2713.8,18.4l46.9-49l-53.3-51.1c-51.1-49-53.3-49-95.9-10.7c-51.1,46.9-53.3,70.3-6.4,121.4C2649.9,78,2658.4,78,2713.8,18.4z M7388.1,31.2c49-44.7,49-76.7-4.3-123.6c-42.6-38.3-44.7-38.3-95.9,10.7l-53.3,51.1l46.9,49C7336.9,75.9,7336.9,78,7388.1,31.2z M1011.6-2.9c40.5-46.9,42.6-53.3,12.8-78.8c-27.7-23.4-42.6-19.2-85.2,21.3c-40.5,38.3-46.9,55.4-29.8,78.8C943.4,56.7,956.1,54.6,1011.6-2.9z M1269.3-113.7l-51.1-55.4l-53.3,53.3l-53.3,53.3l51.1,55.4l51.1,55.4l53.3-53.3l53.3-53.3L1269.3-113.7z M2969.4-2.9l46.9-49l-49-46.9l-49-46.9l-51.1,53.3c-49,51.2-49,53.3-10.7,95.9C2905.5,56.7,2914.1,56.7,2969.4-2.9z M3367.9-154.2c168.3-185.3,181.1-204.5,155.5-245c-14.9-25.5-36.2-44.7-49-44.7c-12.8,0-108.6,85.2-213,191.7L3071.7-62.6l51.1,55.4c27.7,29.8,53.3,53.3,55.4,53.3C3180.4,46.1,3265.6-43.4,3367.9-154.2z M6734-252.2c-104.4-106.5-200.3-191.7-213-191.7s-34.1,19.2-49,44.7c-25.6,40.5-12.8,59.7,157.6,245L6815,48.2l55.4-53.3l55.4-55.4L6734-252.2z M7138.8,3.5c38.3-42.6,38.3-44.7-12.8-98l-53.3-51.2l-49,44.7l-46.9,44.8l46.9,51.1C7081.3,56.7,7089.8,56.7,7138.8,3.5z M8832.5-113.7l-51.1-55.4l-53.3,53.3l-53.3,53.3L8726-7.2l51.1,55.4l53.3-53.3l53.3-53.3L8832.5-113.7z M9086.1,18.4c17-23.5,10.7-40.5-29.8-78.8c-42.6-40.5-57.5-44.7-85.2-21.3c-29.8,25.6-27.7,32,12.8,78.8C9039.2,54.6,9052,56.7,9086.1,18.4z M1567.6-94.5c0-14.9-19.2-38.4-44.7-53.3c-36.2-19.2-53.3-14.9-95.9,25.5l-51.1,49l46.9,49l46.9,49l49-46.9C1546.3-47.7,1567.6-79.6,1567.6-94.5z M8570.5-120.1c-44.8-42.6-59.6-46.9-98-27.7c-57.5,32-57.5,61.8,2.1,123.6l46.9,49l49-46.9l51.1-46.9L8570.5-120.1z M1795.6-43.4c61.8-57.5,61.8-68.2-6.4-112.9c-51.1-34.1-57.5-34.1-95.9,2.1c-49,44.8-51.1,68.2-4.3,119.3C1731.7,14.1,1735.9,14.1,1795.6-43.4z M8304.2-32.7c49-44.7,49-76.7-4.3-123.6c-38.3-36.2-44.7-36.2-95.9-2.1c-63.9,42.6-66,51.1-6.4,112.9C8253,12,8253,14.1,8304.2-32.7z M2057.6-71.1l51.1-53.3l-46.9-46.9l-46.9-46.9l-57.5,55.4c-55.4,57.5-55.4,59.6-17,102.3C1989.4-5.1,1998-7.2,2057.6-71.1z M8054.9-60.4c38.3-42.6,38.3-44.7-17-102.3l-57.5-55.4l-46.9,46.9l-46.9,46.9l51.1,53.3C7997.4-7.2,8005.9-5.1,8054.9-60.4z M2317.5-75.4c49-44.7,49-76.7-4.3-123.6c-42.6-38.3-44.7-38.3-100.1,17.1c-55.4,55.4-55.4,57.5-17,100.1C2243-30.6,2266.4-28.5,2317.5-75.4z M7799.2-81.7c38.3-42.6,38.3-44.7-17-100.1c-55.4-55.4-57.5-55.4-100.1-17.1c-51.1,46.9-53.3,70.3-6.4,121.4C7720.4-28.5,7752.4-28.5,7799.2-81.7z M2583.8-107.3l49-46.9l-46.9-49l-46.9-49l-59.7,57.5c-55.4,53.3-57.5,59.6-23.4,95.9C2500.7-49.8,2524.2-49.8,2583.8-107.3z M2843.8-118l44.7-55.4l-46.9-51.1l-46.9-49l-49,46.9c-57.5,55.4-59.6,74.6-12.8,127.8C2777.7-47.7,2792.6-49.8,2843.8-118z M7292.2-139.3c6.4-17-8.5-53.3-40.5-83.1l-51.1-53.3l-46.9,51.1l-46.9,51.1l42.6,55.4c38.3,46.9,53.3,53.3,87.3,34.1C7260.2-96.7,7285.8-120.1,7292.2-139.3z M7537.2-96.7c38.3-34.1,38.3-36.2-19.2-95.9l-57.5-59.6l-49,46.9l-49,46.9l46.9,49C7464.8-51.9,7483.9-49.8,7537.2-96.7z M1139.4-132.9c49-51.1,44.7-98-6.4-98c-44.8,0-100.1,74.6-85.2,115.1C1064.8-69,1081.9-73.2,1139.4-132.9z M3340.2-386.4l87.3-102.3l-46.9-46.9l-46.9-46.9L3142-382.1L2950.3-184l46.9,51.1l49,51.1l104.4-100.1C3208.1-239.4,3293.3-331,3340.2-386.4z M6959.8-271.4c-46.9-53.3-132.1-144.9-191.7-202.4c-104.4-104.4-108.7-104.4-151.3-66c-23.4,21.3-42.6,46.9-42.6,55.4c0,8.5,83.1,104.4,183.2,210.9l185.4,193.9l49-46.9l49-46.9L6959.8-271.4z M8947.6-115.8c14.9-40.5-40.5-115.1-85.2-115.1c-51.1,0-55.4,46.9-6.4,98C8913.5-73.2,8930.5-69,8947.6-115.8z M1407.8-158.4c34.1-53.3,34.1-57.5-8.5-100.1l-44.8-44.7l-55.4,53.3l-55.4,55.4l49,46.9C1354.6-90.3,1363.1-92.4,1407.8-158.4z M8700.4-152.1l46.9-49l-53.3-51.2l-53.3-51.1l-44.7,44.7c-42.6,42.6-42.6,46.9-8.5,100.1C8632.3-90.3,8642.9-90.3,8700.4-152.1z M1667.7-171.2l49-46.9l-46.9-49c-57.5-61.8-72.4-61.8-115,4.3c-34.1,51.1-34.1,57.5,2.1,95.9C1603.8-113.7,1608.1-113.7,1667.7-171.2z M8438.4-167c36.2-38.3,36.2-44.7,2.1-95.9c-42.6-66-51.1-66-112.9-6.4l-49,46.9l46.9,49C8380.9-113.7,8389.4-113.7,8438.4-167z M1925.5-194.6l46.9-49l-49-46.9l-49-46.9l-51.1,53.3c-49,51.1-49,53.3-10.7,95.9C1861.6-135,1870.1-135,1925.5-194.6z M2228-265c0-14.9-21.3-42.6-46.9-61.8c-46.9-32-51.1-29.8-95.9,25.6l-46.9,57.5l44.7,49l46.9,49l49-46.9C2206.7-218.1,2228-250.1,2228-265z M7912.2-296.9c-36.2-49-53.3-55.4-85.2-38.4c-63.9,34.1-68.2,81-14.9,138.5l49,51.1l46.8-44.7l49-44.7L7912.2-296.9z M8182.7-188.3c38.3-42.6,38.3-44.7-12.8-95.9l-51.1-51.1l-51.1,42.6l-51.1,42.6l49,51.1C8125.2-135,8133.7-132.9,8182.7-188.3z M2458.1-331l-46.9-49l-59.7,57.5L2292-265l46.9,49l46.9,49l59.6-57.5L2505-282L2458.1-331z M7645.8-320.4l-57.5-59.6l-49,46.9l-49,46.9l57.5,59.6l57.5,59.6l49-46.9l49-46.9L7645.8-320.4z M2718.1-241.5l51.1-53.3l-46.9-49c-36.2-36.2-55.4-40.5-83.1-23.4c-68.2,42.6-83.1,87.4-40.5,134.2C2649.9-175.5,2658.4-177.6,2718.1-241.5z M7396.6-233c42.6-46.9,27.7-91.6-40.5-134.2c-27.7-17-46.9-12.8-83.1,23.4l-46.9,49l51.1,53.3C7336.9-177.6,7345.5-175.5,7396.6-233z M3082.4-373.6c221.6-228,223.7-232.2,168.3-262c-68.2-36.2-108.6-12.8-274.8,172.6c-151.3,166.2-155.5,172.6-119.3,210.9c21.3,23.4,44.8,42.6,51.1,42.6C2916.2-209.6,2992.9-284.1,3082.4-373.6z M3949.5-380c27.7-87.3,74.6-240.7,104.4-340.9c32-100.1,112.9-291.9,181.1-426.1c140.6-274.8,138.5-321.7-10.6-236.5c-315.3,176.8-509.2,268.4-735,340.9c-296.1,95.9-345.1,119.3-345.1,161.9c0,32,104.4,95.9,157.7,95.9c19.2,0,66,32,104.4,72.4c40.5,38.3,93.8,78.8,119.3,87.3c23.4,6.4,44.7,23.4,44.7,34.1c0,10.7,38.3,61.8,83.1,110.8c46.9,49,100.1,132.1,119.3,181.1c29.8,72.5,46.9,89.5,83.1,85.2C3892-218.1,3911.1-252.2,3949.5-380z M6222.7-299.1c19.2-51.1,72.4-132.1,119.3-181.1c44.8-49,83.1-100.1,83.1-110.8c0-10.6,17-25.5,38.3-32c21.3-6.4,74.6-46.9,117.2-87.3s93.8-74.6,112.9-74.6c53.3,0,157.7-61.8,157.7-95.9c0-42.6-49-66-345.1-161.9c-221.6-72.4-492.1-196-756.3-351.5c-51.1-29.8-74.6-34.1-91.6-17.1c-19.2,19.2,0,72.4,72.4,202.4c121.4,228,204.5,441,279.1,711.6c32,117.2,66.1,230.1,76.7,251.4C6122.6-179.7,6184.4-203.2,6222.7-299.1z M7138.8-252.2c38.3-42.6,36.2-44.7-85.2-174.7c-228-247.1-242.9-255.7-319.6-200.3c-38.3,27.7-29.8,40.5,149.1,223.7c104.4,106.5,196,193.9,202.4,193.9C7094.1-209.6,7117.5-228.8,7138.8-252.2z M1277.9-271.4c53.3-59.6,23.4-95.9-42.6-53.3c-55.4,38.4-70.3,93.8-23.4,93.8C1228.9-230.9,1258.7-250.1,1277.9-271.4z M8802.7-254.3c19.2-32-81-108.7-106.5-83.1c-12.8,12.8-4.2,36.2,19.2,63.9C8760.1-224.5,8781.4-220.2,8802.7-254.3z M1539.9-299.1l49-46.9l-46.9-49l-46.9-49l-59.7,57.5c-55.4,53.3-57.5,59.6-23.4,95.9C1456.8-241.5,1480.3-241.5,1539.9-299.1z M1802-412l-51.1-53.3l-49,46.9c-61.8,57.5-61.8,74.6,0,123.6c46.9,38.3,46.9,38.3,98-10.7l53.3-51.1L1802-412z M8342.5-350.2c0-12.8-21.3-42.6-49-68.2l-49-46.9l-51.1,53.3l-49,53.3l49,53.3c46.9,49,49,49,98,14.9C8319.1-309.7,8342.5-337.4,8342.5-350.2z M8574.8-286.3l49-34.1l-59.6-61.8l-59.7-61.8l-49,46.9l-49,46.9l46.9,49C8508.7-243.7,8510.8-241.5,8574.8-286.3z M2061.9-426.9l-46.9-46.9l-53.3,51.1l-53.3,51.1l46.9,49l46.9,51.1l53.3-55.4l53.3-53.3L2061.9-426.9z M8033.6-420.5l-53.3-53.3l-46.9,46.9l-46.9,46.9l51.1,53.3l51.1,53.3l49-46.9l51.1-46.9L8033.6-420.5z M2328.2-341.7c61.8-57.5,61.8-72.4-4.3-115c-53.3-34.1-57.5-34.1-106.5,12.8l-53.3,51.1l46.9,49C2266.4-284.1,2266.4-284.1,2328.2-341.7z M7784.3-343.8l46.9-49l-53.3-51.1c-49-46.9-53.3-46.9-106.5-12.8c-66,42.6-66,51.1-6.4,112.9C7722.6-284.1,7726.8-284.1,7784.3-343.8z M2590.2-369.4l51.1-53.3l-46.9-46.9l-46.9-46.9l-57.5,55.4c-55.4,57.5-55.4,59.7-17,102.3C2522.1-303.3,2530.6-305.4,2590.2-369.4z M7522.3-358.7c38.3-42.6,38.3-44.7-17-102.3l-57.5-55.4l-46.9,46.9l-46.9,46.9l51.1,53.3C7464.8-305.4,7473.3-303.3,7522.3-358.7z M2963.1-507.8c168.3-170.4,176.8-193.9,85.2-221.6c-34.1-10.7-78.8,21.3-202.4,147c-155.5,155.5-155.5,159.8-117.2,202.4c21.3,23.4,44.8,42.6,51.1,42.6C2788.4-337.4,2869.3-414.1,2963.1-507.8z M7266.6-380c38.3-42.6,38.3-46.9-117.2-202.4c-157.7-159.8-198.1-176.8-264.2-115.1c-21.3,19.2,279.1,357.9,319.6,357.9C7217.6-337.4,7245.3-356.6,7266.6-380z M1410-426.9l40.5-44.7l-57.5,38.3c-61.8,38.3-72.4,53.3-42.6,53.3C1360.9-380,1386.5-401.3,1410-426.9z M1674.1-433.3l51.1-53.3l-44.8-46.9c-44.7-42.6-49-42.6-100.1-8.5c-63.9,40.5-68.2,68.2-19.2,123.6C1605.9-369.4,1614.5-369.4,1674.1-433.3z M8432-416.2c53.3-46.9,49-83.1-17-125.7c-51.1-34.1-55.4-34.1-100.1,8.5l-44.8,46.9l51.1,53.3C8380.9-369.4,8380.9-369.4,8432-416.2z M8662.1-388.5c0-4.2-23.4-23.4-53.3-42.6c-53.3-36.2-53.3-34.1-27.7,8.5C8604.6-386.4,8662.1-360.8,8662.1-388.5z M1929.8-454.6l51.1-53.3l-46.9-46.9l-46.9-46.9l-57.5,55.4c-55.4,57.5-55.4,59.6-17,102.3C1861.6-388.5,1870.1-390.7,1929.8-454.6z M8182.7-443.9c38.3-42.6,38.3-44.7-17-102.3l-57.5-55.4l-46.9,46.9l-46.9,46.9l51.1,53.3C8125.2-390.7,8133.7-388.5,8182.7-443.9z M2202.5-471.6l46.9-49l-53.3-51.1l-53.3-49l-53.3,49l-53.3,51.1l46.9,49c25.6,27.7,51.1,49,59.6,49C2151.4-422.6,2176.9-443.9,2202.5-471.6z M7899.4-458.8c49-44.7,49-76.7-4.3-123.6c-42.6-38.3-44.7-38.3-95.9,10.6l-53.3,51.1l46.9,49C7848.2-414.1,7848.2-412,7899.4-458.8z M2464.5-499.3l51.1-53.3l-53.3-40.5c-53.3-40.5-53.3-40.5-104.4,10.7c-51.1,51.1-51.1,53.3-12.8,95.9C2394.2-431.2,2402.7-433.3,2464.5-499.3z M2914.1-767.8c-81-32-125.7-14.9-238.6,100.1l-115,117.2l53.3,55.4l51.1,55.4l142.7-155.5C2929-727.3,2946-755,2914.1-767.8z M7319.9-667.6c-112.9-115-155.5-132.1-240.7-100.1c-32,12.8-14.9,40.5,104.4,170.4l142.7,157.7l55.4-55.4l53.3-55.4L7319.9-667.6z M7650.1-486.5c38.3-42.6,38.3-44.7-12.8-95.9c-51.1-51.1-51.1-51.1-104.4-10.7l-53.3,40.5l51.1,53.3C7592.6-433.3,7601.1-431.2,7650.1-486.5z M1844.6-631.4c0-21.3-12.8-25.6-36.2-14.9c-21.3,8.5-55.4,21.3-74.6,25.6c-44.7,12.8-49,51.1-12.8,87.3c19.2,19.2,36.2,14.9,74.6-21.3C1823.3-580.3,1844.6-614.4,1844.6-631.4z M8299.9-582.4c0-14.9-17-32-36.2-38.3c-21.3-4.3-55.4-17-74.6-25.6c-53.3-21.3-49,27.7,8.5,89.5c34.1,36.2,51.1,42.6,74.6,25.6C8287.1-544.1,8299.9-567.5,8299.9-582.4z M2072.5-597.3c44.7-42.6,46.9-49,12.8-85.2c-44.7-49-68.2-49-127.8,8.5c-44.7,42.6-46.9,49-12.8,85.2C1989.4-539.8,2012.9-539.8,2072.5-597.3z M2336.7-708.1c-49-46.8-93.8-36.2-138.5,38.4c-19.2,29.8-12.8,44.7,29.8,81l51.1,42.6l51.1-59.6l51.1-57.5L2336.7-708.1z M7803.5-627.1c12.8-34.1-49-115-89.5-115c-14.9,0-40.5,17-61.8,38.3c-32,38.3-32,44.8,10.7,95.9c36.2,46.9,51.1,53.3,85.2,34.1C7771.6-586.7,7797.1-610.1,7803.5-627.1z M8048.5-586.7c38.3-34.1,38.3-36.2-8.5-85.2c-55.4-57.5-74.6-59.6-127.8-12.8c-38.3,34.1-38.3,36.2,8.5,85.2C7976.1-541.9,7995.3-539.8,8048.5-586.7z M2739.4-789.1c0-8.5-36.2-17-81-17c-63.9,0-95.9,14.9-155.5,76.7l-72.4,74.6l53.3,40.5l53.3,40.5L2639.2-674C2694.6-727.3,2739.4-780.5,2739.4-789.1z M7552.1-652.7c6.4-2.1-23.4-38.3-61.8-78.8c-57.5-59.6-89.5-74.6-153.4-74.6c-44.7,0-81,6.4-81,14.9c0,8.5,44.7,61.8,100.1,117.2c95.9,98,102.3,100.1,142.7,63.9C7524.4-629.3,7547.9-648.4,7552.1-652.7z M2196.1-720.9c36.2-40.5,36.2-42.6-2.1-42.6c-57.5,0-102.3,34.1-85.2,61.8C2130.1-667.6,2151.4-671.9,2196.1-720.9z M7886.6-701.7c17.1-27.7-27.7-61.8-85.2-61.8c-38.3,0-38.3,2.1-2.1,42.6C7844-671.9,7865.3-667.6,7886.6-701.7z M2462.4-752.8l49-53.3h-51.1c-27.7,0-72.4,6.4-100.1,12.8c-46.9,12.8-46.9,17.1-12.8,53.3C2394.2-688.9,2402.7-688.9,2462.4-752.8z M7648-740.1c34.1-36.2,34.1-40.5-12.8-53.3c-27.7-6.4-72.4-12.8-100.1-12.8h-51.1l49,53.3C7592.6-688.9,7601.1-688.9,7648-740.1z"/></g></g>
</svg>